<?xml version="1.0" encoding="UTF-8"?>
<svg width="700pt" height="700pt" version="1.1" viewBox="0 0 700 700" xmlns="http://www.w3.org/2000/svg" xmlns:xlink="http://www.w3.org/1999/xlink">
 <defs>
  <symbol id="u" overflow="visible">
   <path d="m14.656-0.875c-0.76172 0.39844-1.5547 0.69531-2.375 0.89062-0.8125 0.19531-1.6641 0.29688-2.5469 0.29688-2.6562 0-4.7617-0.73828-6.3125-2.2188-1.5547-1.4883-2.3281-3.5039-2.3281-6.0469 0-2.5508 0.77344-4.5664 2.3281-6.0469 1.5508-1.4883 3.6562-2.2344 6.3125-2.2344 0.88281 0 1.7344 0.10156 2.5469 0.29688 0.82031 0.19922 1.6133 0.49609 2.375 0.89062v3.2969c-0.76172-0.51953-1.5117-0.89844-2.25-1.1406-0.74219-0.23828-1.5234-0.35938-2.3438-0.35938-1.4688 0-2.625 0.46875-3.4688 1.4062-0.83594 0.9375-1.25 2.2344-1.25 3.8906 0 1.6484 0.41406 2.9375 1.25 3.875 0.84375 0.9375 2 1.4062 3.4688 1.4062 0.82031 0 1.6016-0.11719 2.3438-0.35938 0.73828-0.23828 1.4883-0.61719 2.25-1.1406z"/>
  </symbol>
  <symbol id="d" overflow="visible">
   <path d="m10.719-8.7031c-0.33594-0.15625-0.66797-0.26953-1-0.34375-0.32422-0.082031-0.65625-0.125-1-0.125-0.98047 0-1.7344 0.32031-2.2656 0.95312-0.53125 0.625-0.79688 1.5273-0.79688 2.7031v5.5156h-3.8125v-11.969h3.8125v1.9688c0.48828-0.78125 1.0508-1.3477 1.6875-1.7031 0.64453-0.36328 1.4102-0.54688 2.2969-0.54688 0.13281 0 0.27344 0.007812 0.42188 0.015625 0.14453 0.011719 0.36328 0.03125 0.65625 0.0625z"/>
  </symbol>
  <symbol id="a" overflow="visible">
   <path d="m13.781-6.0156v1.0938h-8.9375c0.09375 0.89844 0.41406 1.5703 0.96875 2.0156 0.55078 0.44922 1.3281 0.67188 2.3281 0.67188 0.80078 0 1.625-0.11719 2.4688-0.35938 0.84375-0.23828 1.7109-0.59766 2.6094-1.0781v2.9531c-0.90625 0.33594-1.8125 0.58984-2.7188 0.76562s-1.8125 0.26562-2.7188 0.26562c-2.1562 0-3.8398-0.54688-5.0469-1.6406-1.1992-1.1016-1.7969-2.6484-1.7969-4.6406 0-1.9453 0.58594-3.4766 1.7656-4.5938 1.1758-1.125 2.8008-1.6875 4.875-1.6875 1.875 0 3.375 0.57031 4.5 1.7031 1.1328 1.125 1.7031 2.6367 1.7031 4.5312zm-3.9375-1.2656c0-0.72656-0.21484-1.3125-0.64062-1.75-0.41797-0.44531-0.96875-0.67188-1.6562-0.67188-0.74219 0-1.3438 0.21094-1.8125 0.625-0.46094 0.41797-0.74609 1.0156-0.85938 1.7969z"/>
  </symbol>
  <symbol id="g" overflow="visible">
   <path d="m7.2031-5.3906c-0.80469 0-1.4062 0.13672-1.8125 0.40625-0.39844 0.27344-0.59375 0.67188-0.59375 1.2031 0 0.48047 0.16016 0.85938 0.48438 1.1406 0.32031 0.27344 0.77344 0.40625 1.3594 0.40625 0.71875 0 1.3203-0.25391 1.8125-0.76562 0.48828-0.51953 0.73438-1.1719 0.73438-1.9531v-0.4375zm5.8438-1.4375v6.8281h-3.8594v-1.7656c-0.51172 0.71875-1.0898 1.2461-1.7344 1.5781-0.63672 0.33203-1.418 0.5-2.3438 0.5-1.2422 0-2.2461-0.35938-3.0156-1.0781-0.77344-0.72656-1.1562-1.6719-1.1562-2.8281 0-1.3945 0.47656-2.4219 1.4375-3.0781 0.96875-0.65625 2.4883-0.98438 4.5625-0.98438h2.25v-0.29688c0-0.60156-0.24219-1.0469-0.71875-1.3281-0.48047-0.28125-1.2266-0.42188-2.2344-0.42188-0.8125 0-1.5742 0.085937-2.2812 0.25-0.71094 0.15625-1.3672 0.40234-1.9688 0.73438v-2.9219c0.82031-0.19531 1.6445-0.34766 2.4688-0.45312 0.82031-0.10156 1.6484-0.15625 2.4844-0.15625 2.1562 0 3.7109 0.42969 4.6719 1.2812 0.95703 0.84375 1.4375 2.2266 1.4375 4.1406z"/>
  </symbol>
  <symbol id="b" overflow="visible">
   <path d="m6.0156-15.359v3.3906h3.9375v2.7344h-3.9375v5.0781c0 0.55469 0.10938 0.92969 0.32812 1.125 0.21875 0.19922 0.65625 0.29688 1.3125 0.29688h1.9688v2.7344h-3.2812c-1.5117 0-2.5859-0.3125-3.2188-0.9375-0.625-0.63281-0.9375-1.707-0.9375-3.2188v-5.0781h-1.9062v-2.7344h1.9062v-3.3906z"/>
  </symbol>
  <symbol id="i" overflow="visible">
   <path d="m9.9688-10.219v-6.4062h3.8594v16.625h-3.8594v-1.7344c-0.52344 0.71094-1.1016 1.2305-1.7344 1.5625-0.63672 0.32031-1.3711 0.48438-2.2031 0.48438-1.4688 0-2.6797-0.58203-3.625-1.75-0.94922-1.1758-1.4219-2.6875-1.4219-4.5312s0.47266-3.3477 1.4219-4.5156c0.94531-1.1758 2.1562-1.7656 3.625-1.7656 0.83203 0 1.5664 0.16797 2.2031 0.5 0.63281 0.32422 1.2109 0.83594 1.7344 1.5312zm-2.5156 7.75c0.82031 0 1.4453-0.29688 1.875-0.89062 0.42578-0.60156 0.64062-1.4727 0.64062-2.6094 0-1.1445-0.21484-2.0156-0.64062-2.6094-0.42969-0.59375-1.0547-0.89062-1.875-0.89062-0.8125 0-1.4336 0.29688-1.8594 0.89062-0.42969 0.59375-0.64062 1.4648-0.64062 2.6094 0 1.1367 0.21094 2.0078 0.64062 2.6094 0.42578 0.59375 1.0469 0.89062 1.8594 0.89062z"/>
  </symbol>
  <symbol id="c" overflow="visible">
   <path d="m8.2031-2.4688c0.82031 0 1.4453-0.29688 1.875-0.89062 0.42578-0.60156 0.64062-1.4727 0.64062-2.6094 0-1.1445-0.21484-2.0156-0.64062-2.6094-0.42969-0.59375-1.0547-0.89062-1.875-0.89062-0.82422 0-1.4531 0.30469-1.8906 0.90625-0.4375 0.59375-0.65625 1.4609-0.65625 2.5938 0 1.1367 0.21875 2.0078 0.65625 2.6094 0.4375 0.59375 1.0664 0.89062 1.8906 0.89062zm-2.5469-7.75c0.53125-0.69531 1.1133-1.207 1.75-1.5312 0.64453-0.33203 1.3828-0.5 2.2188-0.5 1.4688 0 2.6758 0.58984 3.625 1.7656 0.94531 1.168 1.4219 2.6719 1.4219 4.5156s-0.47656 3.3555-1.4219 4.5312c-0.94922 1.168-2.1562 1.75-3.625 1.75-0.83594 0-1.5742-0.16797-2.2188-0.5-0.63672-0.33203-1.2188-0.84766-1.75-1.5469v1.7344h-3.8125v-16.625h3.8125z"/>
  </symbol>
  <symbol id="f" overflow="visible">
   <path d="m0.26562-11.969h3.8281l3.2188 8.125 2.7344-8.125h3.8125l-5.0312 13.094c-0.5 1.332-1.0898 2.2656-1.7656 2.7969-0.66797 0.53125-1.5547 0.79688-2.6562 0.79688h-2.2188v-2.5h1.2031c0.64453 0 1.1133-0.10547 1.4062-0.3125 0.30078-0.21094 0.53125-0.57812 0.6875-1.1094l0.10938-0.34375z"/>
  </symbol>
  <symbol id="h" overflow="visible">
   <path d="m2.0156-15.953h4.1094v6.0781h6.0625v-6.0781h4.1094v15.953h-4.1094v-6.7656h-6.0625v6.7656h-4.1094z"/>
  </symbol>
  <symbol id="t" overflow="visible">
   <path d="m7.8438-8.875c0.86328 0 1.4844-0.16016 1.8594-0.48438 0.375-0.32031 0.5625-0.84766 0.5625-1.5781 0-0.72656-0.1875-1.25-0.5625-1.5625s-0.99609-0.46875-1.8594-0.46875h-1.7188v4.0938zm-1.7188 2.8438v6.0312h-4.1094v-15.953h6.2656c2.1016 0 3.6445 0.35547 4.625 1.0625 0.97656 0.71094 1.4688 1.8242 1.4688 3.3438 0 1.0547-0.25781 1.918-0.76562 2.5938-0.51172 0.67969-1.2773 1.1797-2.2969 1.5 0.5625 0.125 1.0625 0.41797 1.5 0.875 0.44531 0.44922 0.89844 1.1328 1.3594 2.0469l2.2344 4.5312h-4.375l-1.9531-3.9688c-0.38672-0.78906-0.78125-1.332-1.1875-1.625-0.40625-0.28906-0.94531-0.4375-1.6094-0.4375z"/>
  </symbol>
  <symbol id="s" overflow="visible">
   <path d="m1.8438-11.969h3.8125v11.969h-3.8125zm0-4.6562h3.8125v3.125h-3.8125z"/>
  </symbol>
  <symbol id="r" overflow="visible">
   <path d="m9.7031-16.625v2.5156h-2.1094c-0.54297 0-0.92188 0.10156-1.1406 0.29688-0.21094 0.19922-0.3125 0.53906-0.3125 1.0156v0.82812h3.2656v2.7344h-3.2656v9.2344h-3.8281v-9.2344h-1.8906v-2.7344h1.8906v-0.82812c0-1.3008 0.36328-2.2656 1.0938-2.8906 0.72656-0.625 1.8516-0.9375 3.375-0.9375z"/>
  </symbol>
  <symbol id="e" overflow="visible">
   <path d="m7.5312-9.5156c-0.84375 0-1.4922 0.30859-1.9375 0.92188-0.44922 0.60547-0.67188 1.4805-0.67188 2.625 0 1.1484 0.22266 2.0273 0.67188 2.6406 0.44531 0.60547 1.0938 0.90625 1.9375 0.90625 0.83203 0 1.4688-0.30078 1.9062-0.90625 0.44531-0.61328 0.67188-1.4922 0.67188-2.6406 0-1.1445-0.22656-2.0195-0.67188-2.625-0.4375-0.61328-1.0742-0.92188-1.9062-0.92188zm0-2.7344c2.0508 0 3.6562 0.55859 4.8125 1.6719 1.1641 1.1055 1.75 2.6406 1.75 4.6094s-0.58594 3.5117-1.75 4.625c-1.1562 1.1055-2.7617 1.6562-4.8125 1.6562-2.0625 0-3.6797-0.55078-4.8438-1.6562-1.168-1.1133-1.75-2.6562-1.75-4.625s0.58203-3.5039 1.75-4.6094c1.1641-1.1133 2.7812-1.6719 4.8438-1.6719z"/>
  </symbol>
  <symbol id="q" overflow="visible">
   <path d="m12.922-9.9688c0.48828-0.75 1.0625-1.3164 1.7188-1.7031 0.66406-0.38281 1.3984-0.57812 2.2031-0.57812 1.375 0 2.4219 0.42969 3.1406 1.2812 0.71875 0.84375 1.0781 2.0742 1.0781 3.6875v7.2812h-3.8438v-6.2344c0.007812-0.09375 0.015625-0.1875 0.015625-0.28125v-0.4375c0-0.84375-0.125-1.457-0.375-1.8438-0.25-0.38281-0.65234-0.57812-1.2031-0.57812-0.73047 0-1.293 0.30469-1.6875 0.90625-0.38672 0.59375-0.58984 1.4609-0.60938 2.5938v5.875h-3.8438v-6.2344c0-1.3203-0.11719-2.1758-0.34375-2.5625-0.23047-0.38281-0.63672-0.57812-1.2188-0.57812-0.73047 0-1.2969 0.30469-1.7031 0.90625-0.39844 0.60547-0.59375 1.4648-0.59375 2.5781v5.8906h-3.8438v-11.969h3.8438v1.75c0.46875-0.66406 1.0039-1.1719 1.6094-1.5156 0.61328-0.34375 1.2891-0.51562 2.0312-0.51562 0.82031 0 1.5508 0.19922 2.1875 0.59375 0.63281 0.39844 1.1133 0.96094 1.4375 1.6875z"/>
  </symbol>
  <symbol id="p" overflow="visible">
   <path d="m13.859-7.2812v7.2812h-3.8438v-5.5469c0-1.0508-0.027344-1.7695-0.078125-2.1562-0.042969-0.39453-0.12109-0.6875-0.23438-0.875-0.14844-0.25-0.35156-0.44141-0.60938-0.57812-0.25-0.14453-0.54297-0.21875-0.875-0.21875-0.79297 0-1.418 0.3125-1.875 0.9375-0.46094 0.61719-0.6875 1.4648-0.6875 2.5469v5.8906h-3.8125v-16.625h3.8125v6.4062c0.58203-0.69531 1.1953-1.207 1.8438-1.5312 0.64453-0.33203 1.3594-0.5 2.1406-0.5 1.3828 0 2.4297 0.42969 3.1406 1.2812 0.71875 0.84375 1.0781 2.0742 1.0781 3.6875z"/>
  </symbol>
  <symbol id="o" overflow="visible">
   <path d="m2.0156-15.953h4.5781l5.8125 10.938v-10.938h3.8906v15.953h-4.5938l-5.7969-10.938v10.938h-3.8906z"/>
  </symbol>
  <symbol id="n" overflow="visible">
   <path d="m1.7031-4.6562v-7.3125h3.8438v1.2031c0 0.64844-0.007813 1.4609-0.015625 2.4375v1.9688c0 0.96094 0.023438 1.6523 0.078125 2.0781 0.050781 0.41797 0.13281 0.72656 0.25 0.92188 0.15625 0.25 0.35938 0.44531 0.60938 0.57812 0.25781 0.13672 0.55078 0.20312 0.875 0.20312 0.80078 0 1.4258-0.30469 1.875-0.92188 0.45703-0.61328 0.6875-1.4688 0.6875-2.5625v-5.9062h3.8281v11.969h-3.8281v-1.7344c-0.57422 0.69922-1.1836 1.2148-1.8281 1.5469-0.64844 0.33203-1.3555 0.5-2.125 0.5-1.3867 0-2.4453-0.42188-3.1719-1.2656-0.71875-0.85156-1.0781-2.0859-1.0781-3.7031z"/>
  </symbol>
  <symbol id="m" overflow="visible">
   <path d="m13.859-7.2812v7.2812h-3.8438v-5.5781c0-1.0312-0.027344-1.7383-0.078125-2.125-0.042969-0.39453-0.12109-0.6875-0.23438-0.875-0.14844-0.25-0.35156-0.44141-0.60938-0.57812-0.25-0.14453-0.54297-0.21875-0.875-0.21875-0.79297 0-1.418 0.3125-1.875 0.9375-0.46094 0.61719-0.6875 1.4648-0.6875 2.5469v5.8906h-3.8125v-11.969h3.8125v1.75c0.58203-0.69531 1.1953-1.207 1.8438-1.5312 0.64453-0.33203 1.3594-0.5 2.1406-0.5 1.3828 0 2.4297 0.42969 3.1406 1.2812 0.71875 0.84375 1.0781 2.0742 1.0781 3.6875z"/>
  </symbol>
  <symbol id="l" overflow="visible">
   <path d="m2.0156-15.953h6.8125c2.0312 0 3.5859 0.45312 4.6719 1.3594 1.0938 0.89844 1.6406 2.1797 1.6406 3.8438 0 1.6797-0.54688 2.9688-1.6406 3.875-1.0859 0.89844-2.6406 1.3438-4.6719 1.3438h-2.7031v5.5312h-4.1094zm4.1094 2.9844v4.4531h2.2656c0.80078 0 1.4141-0.19141 1.8438-0.57812 0.4375-0.38281 0.65625-0.9375 0.65625-1.6562 0-0.70703-0.21875-1.2539-0.65625-1.6406-0.42969-0.38281-1.043-0.57812-1.8438-0.57812z"/>
  </symbol>
  <symbol id="k" overflow="visible">
   <path d="m1.8438-11.969h3.8125v11.75c0 1.6016-0.38672 2.8281-1.1562 3.6719-0.76172 0.84375-1.8711 1.2656-3.3281 1.2656h-1.8906v-2.5h0.65625c0.72656 0 1.2266-0.16797 1.5-0.5 0.26953-0.32422 0.40625-0.96875 0.40625-1.9375zm0-4.6562h3.8125v3.125h-3.8125z"/>
  </symbol>
  <symbol id="j" overflow="visible">
   <path d="m11.5-11.594v3.125c-0.52344-0.35156-1.043-0.61328-1.5625-0.78125-0.52344-0.17578-1.0625-0.26562-1.625-0.26562-1.0742 0-1.9062 0.3125-2.5 0.9375s-0.89062 1.4961-0.89062 2.6094c0 1.1172 0.29688 1.9844 0.89062 2.6094s1.4258 0.9375 2.5 0.9375c0.59375 0 1.1562-0.085937 1.6875-0.26562 0.53906-0.17578 1.0391-0.44141 1.5-0.79688v3.125c-0.59375 0.23047-1.1992 0.39453-1.8125 0.5-0.61719 0.11328-1.2344 0.17188-1.8594 0.17188-2.1562 0-3.8438-0.55078-5.0625-1.6562-1.2188-1.1133-1.8281-2.6562-1.8281-4.625s0.60938-3.5039 1.8281-4.6094c1.2188-1.1133 2.9062-1.6719 5.0625-1.6719 0.625 0 1.2383 0.058594 1.8438 0.17188 0.61328 0.10547 1.2227 0.26562 1.8281 0.48438z"/>
  </symbol>
 </defs>
 <g>
  <path d="m576.55 17.523c0.28906-0.027344 0.58203-0.027344 0.875 0-1.9492 4.3516-4.2852 8.5195-6.9727 12.457-1.6992 3.8281-3.8477 7.4375-6.3945 10.758-8.9766 9.0039-16.031 20.172-24.566 29.613-9.3008 10.348-17.375 22.449-28.543 30.93l0.003906 0.003906c3.8555 5.668 7.3828 11.551 10.562 17.617 10.379 18.418 20.281 37.984 32.223 55.414 0.375 0.5625 0.60938 1.1992 0.6875 1.8711 0.003907 0.054688 0.023438 0.10938 0.054688 0.16016 2.2539 6.4492-2.4922 13.75-6.418 18.496-3.5 4.2812-9.0312 10.02-15.066 10.379-3.3789 5.25-11.477 4.4727-16.742 1.6172h-0.003906c-3.2852-1.4844-6.0391-3.9414-7.8906-7.0352-1.8477-3.0977-2.707-6.6875-2.457-10.285-9.7891-4.1328-19.234-9.043-28.238-14.68-6.1172 0.80859-12.336-0.27344-17.816-3.1055-6.2305 22.203-12.461 46-1.2852 68.117 8.0977 16.008 19.625 31.398 20.449 49.898 0.4375 9.625 4.5 18.375 3.7891 28.047-0.79688 10.5-7.6562 19.98-6.9414 30.797 1.0156 15.836-3.6523 28.652-10.938 42.57 6.125 8.5898 6.8047 18.473 8.8359 29.75h-0.003906c2.4258 17.824 9.6875 34.648 21 48.633 4.8125 5.6875 2.3047 15.426 0.76953 22.371 9.3594 17.289 12.762 42.73-13.562 40.727h0.003906c-2.7422-0.19531-5.4531-0.66406-8.1016-1.4023 0.32422 5.3984-3.7227 10.062-9.1133 10.5-7.6875 1.4297-15.613 0.91016-23.051-1.5078-1.3086-0.52344-2.293-1.6328-2.6562-2.9961s-0.0625-2.8164 0.81641-3.9219c1.0195-4.668 1.5352-9.4336 1.5391-14.215-0.60547-4.8359-3.3203-10.816-2.9922-15.812 0.6875-11.375 3.2383-22.449 3.707-33.922 0.41016-10.5 1.3125-17.594-3.2383-27.086-3.1328-6.5625-0.03125-15.645 0.49609-22.312h-0.003906c0.039062-0.72656 0.27734-1.4297 0.68359-2.0352-0.58203-2.4688-1.5742-4.8242-2.9375-6.9688-5.0469-6.918-17.289-11.035-24.316-15.863-5.543-3.8398-11.059-7.7383-16.332-11.965-2.8789-2.332-5.6875-4.6953-8.4531-7.1367 0.82812 21.105 29.59 31.781 40.648 48.086 6.9688 10.289 7.1367 19.25 7.2188 31.344h0.003906c0.64844 11.008-0.085937 22.051-2.1875 32.879-0.22656 1.1172-0.95312 2.0703-1.9766 2.5781-0.29297 0.22266-0.60547 0.41406-0.93359 0.57422-13.969 6.0664-28.047-3.6758-29.969-18.992-0.80078-3.7461-0.51953-7.6445 0.80469-11.238 1.3281-3.5977 3.6445-6.7422 6.6875-9.0703-0.80078-2.9492-1.8125-5.8359-3.0234-8.6445-0.12109-0.69531-0.09375-1.4062 0.085938-2.0859-7.2969-4.1992-11.992-10.062-18.812-15.723-8.9219-7.4102-20.914-12.047-28.215-21.328-4.1992-5.3242-12.871-12.047-11.691-19.789 1.1523-7.6562-2.1875-12.375-4.2812-19.152v-0.003906c-1.0078-5.875-1.5781-11.82-1.7031-17.781-0.042969-0.29297-0.058594-0.58594-0.050781-0.875-6.75-2.4141-13.34-5.4609-20.008-8.5938-0.67188 5.7305-1.7461 11.41-3.2109 16.992-2.5234 7.1172-5.7812 13.949-9.7188 20.391-10.73 17.535-16.988 35.98-24.18 55.125-6.2305 16.578-12.156 36.035-11.375 53.93 0.51953 12.25 6.918 19.594 3.5664 30.848 6.2617 5.8438 13.59 16.332 6.6992 23.219-7.1914 7.1914-31.344-1.75-38.973-3.6211-1.7891-0.49219-3.0273-2.1211-3.0195-3.9766 0.66406-8.6523 2.8555-17.117 6.4727-25.004-6.7227-6.4492-6.9414-12.793-4.2266-22.371v0.003906c4.8008-16.414 6.5508-33.566 5.1641-50.609-1.3477-11.227-7.6602-26.648-1.1562-37.465 4.4453-7.3789 10.293-10.895 8.6758-21.105-0.58594-3.8008-0.57031-7.6758 0.054687-11.473 1.5352-11.008-1.6172-10.938-8.7812-17.73-3.4531-2.8477-6.168-6.4922-7.9062-10.617-4.2812-12.023-0.62891-25.555-7.3867-36.809-7.1367-11.938-2.9609-22.891-1.2617-36.062h0.003906c0.87109-6.3867 2.8477-12.57 5.8438-18.277-0.41016-1.4219-0.94922-2.8008-1.6172-4.1172-0.44531-0.92188-1.0703-1.7422-1.8398-2.4141-0.42578-0.38672-0.98828-0.59375-1.5625-0.57422-3.7305 0.57422-5.9023 6.2305-6.9414 11.715-1.0703 5.2148-1.3984 10.98-2.9102 16.383l-0.003907 0.003906c-1.3242 5.2109-3.375 10.207-6.0938 14.848-1.3359 2.1875-2.8789 4.2383-4.6094 6.125-0.88281 0.9375-1.8242 1.8164-2.8281 2.625-0.92578 0.74219-1.9062 1.4141-2.9336 2.0039-2.1094 1.2461-4.4766 1.9961-6.918 2.1875-2.0742 0.089843-4.1523-0.019531-6.2031-0.33203-2.9062-0.45703-5.8398-0.72266-8.7812-0.79688-5.8867 0.17578-11.758 0.67188-17.594 1.4844-2.4336 0.52734-4.7578 1.4844-6.8594 2.8242-1.9141 1.5195-3.6211 3.2852-5.0742 5.25-1.9375 2.6289-4.3828 4.8398-7.1914 6.5078-1.8984 1.0156-4.082 1.3711-6.2031 1.0117-1.0117-0.17969-1.9922-0.50391-2.9102-0.96094-0.78125-0.42578-1.543-0.89453-2.2773-1.3984l-6.1758-4.0703 7.3867-2.4141h-0.003906c2.2773-0.74609 4.2891-2.1406 5.7891-4.0078 0.13672-0.16016 0.26563-0.32422 0.38672-0.49609-1.2656 0.32031-2.5469 0.55859-3.8438 0.71484-2.0547 0.21875-4.1172 0.51953-6.7227 0.65625-1.2656 0.082031-2.5391 0.011719-3.7891-0.21875-0.65625 0.76953-1.3438 1.5391-2.082 2.2539l-3.543 3.4023-0.875-4.6953c-0.76562-3.5352-0.61328-7.2109 0.4375-10.676 0.89453-2.457 2.3086-4.6953 4.1406-6.5625 0.32422-0.63672 0.73437-1.2227 1.2266-1.7422 1.5508-1.4766 3.1992-2.8438 4.9375-4.0938 0.875-0.73828 1.8438-1.5078 2.6914-2.332 0.45312-0.37891 0.86719-0.80078 1.2383-1.2578l0.51953-0.60547c0.13672-0.22266 0.16016-0.41406 0.30078-0.60547l0.003906 0.003907c0.46875-2.6758 0.36719-5.418-0.30078-8.0469-0.77734-4.0234-0.87891-8.1523-0.30469-12.211 0.38281-2.4961 1.2617-4.8945 2.5781-7.0508 1.5078-2.3789 3.5977-4.3359 6.0664-5.6875 2.4766-1.3203 5.1445-2.2461 7.9023-2.75 2.5-0.51953 5.1367-1.0156 7.6055-1.5898v0.003907c1.1016-0.23828 2.1797-0.58594 3.2109-1.0469 0.62109-0.25391 1.1172-0.74609 1.3711-1.3672 0.82813-2.4766 1.3594-5.0352 1.5938-7.6328 0.375-3.2969 0.98047-6.5625 1.8125-9.7734 0.44922-1.7383 1.0156-3.4414 1.6992-5.1016 0.68359-1.75 1.4883-3.4453 2.418-5.0781 1.9453-3.4414 4.4375-6.5469 7.3789-9.1875 3.1445-2.7734 6.7266-5.0078 10.598-6.6094 8.2461-3.168 17.191-4.0742 25.906-2.625 9.3789 1.4844 18.332 4.9375 26.273 10.141 7.3828 4.7305 13.582 11.094 18.117 18.602 4.7266-4.3477 10.027-8.0273 15.75-10.938 8.6484-4.1992 22.234-3.707 29.066-9.5234 6.6406-5.625 15.504-3.2383 23.625-1.9727 5.7969 0.54688 11.477 1.9648 16.852 4.1992 9.2188 4.4961 14.297-4.418 18.441-11.375-2.4258 2.1562-5.3789 3.6328-8.5625 4.2812-0.98828 0.21484-2.0039 0.30859-3.0156 0.27734-0.55859 0.042969-1.1211 0.03125-1.6758-0.03125l-1.2344-0.16016c-1.8789-0.33984-3.7266-0.84375-5.5195-1.5117-2.1289-0.93359-4.3867-1.5508-6.6953-1.8398-1.7539-0.03125-3.457 0.59375-4.7734 1.75l-4.375 3.3984-0.93359-5.2148c-0.57422-2.8438-0.44141-5.7812 0.38672-8.5625 0.84766-2.5742 2.4219-4.8516 4.5273-6.5625 0.77344-0.63281 1.6133-1.1836 2.5-1.6445-0.10156-0.34375-0.17578-0.69141-0.22656-1.0469-0.16797-2.0547 0.011719-4.125 0.52734-6.125 0.73047-2.9844 1.9805-5.8203 3.6992-8.3672 2.0352-3.0664 4.7734-5.5977 7.9883-7.3867-0.023438-3.5742 0.62891-7.1211 1.9219-10.457 1.7148-4.6484 4.3477-8.9023 7.7383-12.512 1.6484-1.7578 3.5898-3.2148 5.7383-4.3086 0.54297-0.28906 1.1133-0.52734 1.6992-0.71484 0.58594-0.22266 1.1953-0.38672 1.8125-0.49219 0.62891-0.10938 1.2344-0.19141 1.8672-0.27734 0.4375-0.027343 0.84766-0.027343 1.2891-0.050781h0.003906c0.10547-0.027343 0.21875-0.039062 0.32813-0.03125 0.62891-0.32812 1.3125-0.65625 1.9766-1.0156-1.9648-1.3477-3.5898-3.1328-4.75-5.2148-2.1094-4.2344-2.0586-9.2266 0.14062-13.418 2.2539-4.4727 5.8906-8.1016 10.371-10.348 0.57812-0.30078 1.207-0.52344 1.8125-0.79688l0.71484-0.30078 0.058594-0.03125 0.26953-0.078125h-0.085938l0.027344-0.03125 0.38672-0.16016h-0.003906c0.96094-0.37109 1.8672-0.86719 2.6914-1.4844 0.30078-0.25 0.62891-0.41016 0.98828-0.71484l1.043-1.0156v0.003906c0.71875-0.74219 1.3945-1.5234 2.0273-2.3359 2.1875-2.9883 4.0078-6.5625 6.2031-10.062h0.003907c2.1016-3.6953 5.0078-6.8633 8.5078-9.2773 3.3945-2.1367 7.3711-3.1602 11.375-2.9336h1.3438c0.6875 0.050781 0.875 0.10937 1.3125 0.16797 0.76953 0.10938 1.4844 0.1875 2.2812 0.35547s1.457 0.35938 2.1875 0.55078c1.043-0.03125 2.1406-0.03125 3.375 0 0.058594-0.30078 0.10938-0.63281 0.16797-0.9375l-0.007813-0.003906c0.26953-0.73047 0.59766-1.4375 0.99219-2.1094 0.45312-0.57812 0.9375-1.125 1.4492-1.6484 2.043-1.6914 4.4453-2.8906 7.0273-3.5 0.57812-0.14063 1.0469-0.30078 1.75-0.41016s1.5078-0.19141 2.2539-0.30078c0.76953-0.03125 1.5078 0 2.25 0 0.76953 0.082031 1.5078 0.21875 2.2812 0.35547h-0.003906c2.6875 0.73438 5.2734 1.7812 7.7148 3.125l0.79688 0.41406 0.62891 0.24609c0.35547 0.16797 0.98828 0.38672 1.4531 0.54688 1.0469 0.38672 2.0859 0.71875 3.1328 1.0469 2.1133 0.62891 4.168 1.1523 6.1719 1.5938 1.8555 0.43359 3.7344 0.75 5.625 0.95703 0.78516 0.089844 1.5742 0.125 2.3633 0.10938 0.79297 0.058594 1.1523-0.24609 1.3945-0.050781l0.57812 0.4375c4.7031-4.0547 9.9297-7.4648 15.535-10.129 1.2812-0.70703 2.8398-0.69531 4.1094 0.035156 1.2695 0.73047 2.0625 2.0703 2.0938 3.5352 0.039063 4.7734-0.42187 9.5352-1.3711 14.215 0.019531 0.023438 0.027343 0.050781 0.023437 0.082031 0.66016-0.16016 1.3984-0.41016 2.2539-0.6875 2.375-0.91016 4.9375-1.2383 7.4648-0.95703 0.058594 0 0.24609 0.027344 0.24609 0.027344 1.6719 0.49219 3.2773 1.1953 4.7773 2.0859 0.60938 0.375 1.2773 0.64453 1.9766 0.79688l4.375 0.6875c10.84-9.3633 22.012-18.375 33.293-27.172v-0.003906c5.5898-4.9648 11.43-9.6367 17.5-14 2.957-1.8945 9.1055-7.2188 12.754-7.7109zm-23.219 27.914c2.3906-2.7188 10.062-11.09 9.6875-14.984-4.2773 1.75-7.2969 6.7227-10.5 10.062v-0.003906c-4.0898 4.1953-8.418 8.1523-12.957 11.855-3.2773 2.8945-6.3867 5.9766-9.3125 9.2344-2.1133 2.25-5.0742 3.457-7.2695 5.6016-2.3047 2.25-3.7891 4.6914-6.3125 6.8867-1.457 1.2656-16.688 15.453-17.016 15.453v-0.003907c2.1328 1.7031 4.168 3.5273 6.0977 5.4609 8.9141-7.0352 16.828-15.254 23.52-24.426 3.8477-4.6406 7.9727-9.0391 12.355-13.176 3.9688-3.8984 7.9766-7.7656 11.707-11.965zm-5.9844 137.44c0.74219-4.8867-2.9609-7.6562-5.3242-11.375-3.0195-4.7773-5.9258-9.625-8.7227-14.547-5.5742-9.7188-10.84-19.621-16.332-29.363-4.9375-8.7852-9.25-19.406-16.77-26.293-6.0117-5.5156-12.516-10.402-18.473-15.973v-0.003907c-0.46875-0.42969-0.82422-0.96484-1.0391-1.5664-7.6875 6.5312-16.852 11.059-24.348 17.816-5.4766 4.8906-9.3164 11.348-11 18.496-1.6836 7.1484-1.1289 14.641 1.5898 21.461 4.582 13.613 14 28.16 30.465 25.086h-0.003906c1.082-0.22656 2.207-0.007812 3.1289 0.60547 0.5625 0.17578 1.0898 0.44531 1.5664 0.79297 9.1094 7.0508 20.5 10.266 30.547 15.727-0.30078-0.35938-0.60547-0.74219-0.96094-1.1289-0.4375-0.46484-1.0977-1.1758-1.5078-1.6992l-0.003906 0.003906c-0.42578-0.54297-0.82031-1.1133-1.1797-1.6992-0.76562-1.1289-1.4258-2.1875-2.0312-3.1836-2.25-3.8984-3.1797-6.5312-2.5781-7 0.60547-0.46875 2.7422 1.457 5.7344 4.668 0.73828 0.76562 1.5352 1.6172 2.3828 2.5234 0.4375 0.46484 0.82812 0.95703 1.3477 1.4531 0.51953 0.49609 0.84766 0.74219 1.4531 1.3125l0.003907-0.003906c1.5391 1.2266 2.7461 2.8242 3.5 4.6445 0.089843 0.33203 0.16406 0.67188 0.21875 1.0117l0.058593 0.24609 0.027344 0.14062-0.60547 0.050781-0.57422 0.027344v0.57812c0 0.058594 0.54688 0.875 0.41016 1.3125-0.023437 0.097656-0.035156 0.19922-0.03125 0.30078 0.19141 0.10938 0.38672 0.19141 0.49609 0.25 0.32812 0.14844 0.66797 0.27344 1.0156 0.38281 0.25 0.085937 0.50781 0.14844 0.76953 0.19141l1.2656 0.27734-0.003906-0.003907c0.67578 0.18359 1.3164 0.47656 1.8906 0.875 0.51562 0.375 0.98047 0.81641 1.375 1.3125 0.30469 0.37891 0.57031 0.78125 0.79688 1.2109 1.2344 2.2734 1.9219 4.1992 2.625 5.543 0.59766-0.21875 1.2344-0.30469 1.8672-0.25 0.40625-0.070313 0.82031-0.097657 1.2344-0.078126 3.2383 0.24609 6.6719-3.3203 8.9219-5.957l-0.003906-0.003906c-0.33984-0.26953-0.61328-0.61719-0.79297-1.0156-0.20312-0.60938-0.30469-1.25-0.30469-1.8945 0.050781-0.76172 0.1875-1.5156 0.41406-2.2461 0.27734-0.90625 0.60547-1.8672 0.82422-2.582h-0.003906c-0.47656 0.68359-0.87891 1.418-1.207 2.1875l-1.9219 4.6953-2.582-3.6484c-3.5-4.9688-5.4609-9.0039-4.5547-9.7734 0.6875-0.60547 2.8828 0.79688 5.6875 3.4609l0.003906-0.003907c0.44922-0.69922 0.94141-1.3672 1.4766-2.0039 0.60937-0.67969 1.3555-1.2188 2.1875-1.5898 0.3125-0.12891 0.63281-0.23047 0.96484-0.30469 0.40625-0.050781 0.82031-0.058594 1.2305-0.023437 0.79688 0.10156 1.5469 0.44531 2.1406 0.98437 2.1875 2.0859 0.49609 5.625-0.21875 8.0469-0.30078 0.98437-1.7812 3.1289 0.25 2.6602 1.9453-0.44922 2.9609-3.5234 3.207-5.1211zm-27.562 16.52c1.4844 0.79688 4.9648 2.4141 6.1719 1.3125-1.6328-1.9102-3.082-3.9688-4.3359-6.1445-0.19531-0.32812-0.45703-0.60938-0.76953-0.82422 0-0.027343-0.10937 0-0.21875-0.058593l-1.043-0.16016h0.003906c-0.53906-0.085937-1.0703-0.20312-1.5938-0.35938-0.42969-0.12891-0.85156-0.28516-1.2617-0.46875-0.94922-0.36719-1.8477-0.86328-2.6641-1.4766 0.1875 3.5781 2.3867 6.7383 5.6758 8.1602zm-2.1875-10.062s0.03125 0 0.03125-0.027343h-0.03125zm-14.105-118.21c-0.027344-0.03125-0.082032-0.03125-0.10938-0.058594-0.98437-0.60156-2.0234-1.1172-3.1016-1.5352-1.5469-0.13281-3.1055-0.003906-4.6094 0.38672-1.793 0.39453-3.6328 0.53125-5.4609 0.41016-1.0391 2.9297-2.5117 5.6875-4.375 8.1758 0.64844 0.17969 1.2422 0.51953 1.7266 0.98828 1.75 1.6758 3.6523 3.2656 5.6016 4.8125 0.62891-0.60547 1.3125-1.207 1.9219-1.8125l-0.003907 0.003906c0.60547-0.98047 1.2656-1.9258 1.9805-2.8281 2.2969-2.7266 4.4453-5.5781 6.4297-8.543zm-27.93 451.97c5.1328 1.2656 19.32 5.1875 19.043-5.3516-0.09375-4.0703-0.75781-8.1094-1.9805-11.992-0.16797 0.19141-0.30078 0.41406-0.46875 0.60547-1.5156 1.543-3.5312 2.4961-5.6875 2.6875-1.7891 0.23828-3.6016 0.28516-5.4023 0.14062-2.918-0.23047-5.8047-0.75391-8.6172-1.5664l-1.7852-0.49609c-2.168 6.75-3.5938 13.883 4.8984 15.973zm13.914-22.285v-0.003906c0.17969-0.62109 0.31641-1.2539 0.41016-1.8945-0.49609-1.043-1.0156-2.0547-1.5938-3.0977-0.14062-0.27344-0.25781-0.55859-0.35547-0.85156-0.71875-0.95313-0.99219-2.1758-0.73828-3.3477 1.6992-8.5352 3.2383-14.16-3.1328-20.969-3.1914-3.4609-5.707-7.4922-7.4062-11.883-5.8672-14.527-10.02-29.688-12.379-45.176-1.4805-8.5625-2.7422-16.273-9.9883-22.012-4.668-3.6797-9.7695-6.7812-14.41-10.539-9.2734-7.5469-16.383-14.684-20.25-26.184h-0.003906c-0.25391-0.72266-0.29297-1.5039-0.10938-2.25-0.82031-0.42578-1.5977-0.92187-2.332-1.4805-1.9531-1.5625-3.1016-2.625-2.8555-3.2109 0.24609-0.58594 1.7266-0.73828 4.375-0.10938 2.9375 0.71484 6.2305 2.3047 7.8164-1.0977 0.73828-3.043 1.2539-6.1328 1.5391-9.25 0.54688-1.8672 1.7031-4.2266 3.7578-4.5 2.9102-0.38672 4.3359 2.1445 6.0117-1.8125 0.51562-2.1484 0.63672-4.3711 0.35938-6.5625 0.52344-7.1641-0.20312-14.359-2.1445-21.273-1.5352-5.4922-3.3203-10.43-4.7734-14.656-3.0625-8.3711-4.7188-13.859-3.543-14.465 1.0977-0.54688 4.7773 3.7578 9.4727 11.719v0.003906c2.7461 4.7266 5.0781 9.6875 6.9688 14.816 2.5312 6.5586 3.7812 13.539 3.6797 20.562-0.21875 3.3398-1.1094 6.5977-2.625 9.5781-1.1758 2.7461-1.0156 6.5625-3.9375 8.2891-2.0312 1.207-4.3359-0.058594-6.4766 0.54688v0.003906c-1.7852 0.67969-2.832 2.5352-2.4961 4.418 0.16797 2.5273 1.3984 2.2539 3.6797 2.7734 1.5078 0.35938 2.8516 0.62891 3.9375 0.76953 1.0859 0.14063 1.7812 0 1.6445 0.26953l0.4375-0.24609 0.10938-0.058594v0.003906c-0.03125 0.050782-0.050781 0.10547-0.058594 0.16797 0.023438-0.023437 0.054688-0.03125 0.085938-0.027343 0.24609-0.14453 0.4375-0.37109 0.54688-0.63281 0.41016-0.73828 0.76953-1.8633 1.375-2.9883h-0.003907c0.5625-1.1797 1.5547-2.0938 2.7734-2.5586 0.69141-0.26953 1.4648-0.25 2.1406 0.058594 0.36328 0.11328 0.62891 0.42188 0.6875 0.79688 0.16016 0.62891-0.63281 1.3438-0.82422 2.1406-0.082031 0.41016 0.078125 0.57812 0.16016 1.1562l0.003907-0.003906c0.12891 0.99219 0.14844 1.9922 0.054687 2.9883-0.09375 0.92578-0.35547 1.8281-0.76953 2.6641l-0.38672 0.76562c-0.19141 0.27734-0.4375 0.57812-0.6875 0.875l-0.60547 0.63281-0.36719 0.33594c-1.8672 1.4297-4.1562 2.1992-6.5039 2.1875-2.3867 0.042969-4.7734-0.17969-7.1094-0.66016 0.050781 0.76953 0.17969 1.5312 0.38281 2.2773 0.6875 2.1367 1.5117 4.2266 2.4727 6.2578 0.46484 1.043 0.82422 2.0039 1.125 2.8828 6.5625 6.6133 14.984 11.375 22.395 17.836 4.375-8.3945 9.8281-19.812 9.1641-28.184-0.84766-8.9688 0.14062-18.02 2.9102-26.594 5.6875-18.059 1.1797-42.922-6.0938-60.242-5.8125-13.859-14.133-25.441-18.004-39.469-0.10938 0.66016-0.24609 1.3477-0.35547 2.0352-1.8945 9.9883-3.6211 19.043-4.8594 25.633-1.0977 6.6133-1.9453 10.785-2.7422 10.73-0.71484-0.082031-1.3125-4.2578-1.1797-11.035 0.47266-8.8516 1.582-17.656 3.3203-26.348 1.3125-7.1602 2.5547-13.746 3.543-19.348-0.16797-15.922 3.5391-29.312 7.9844-45.23-10.691-10.383-16.645-24.703-16.469-39.605-0.074219-10.207 3.7344-20.059 10.648-27.562-0.23047-0.55078-0.33594-1.1523-0.30078-1.75 0.31641-5.3867 1.7461-10.645 4.1992-15.449-12.25 0.4375-25.812 11.059-33.102 19.43-8.0586 9.4844-14.805 20.008-20.059 31.289-5.875 12.129-10.871 24.645-16.938 36.668h0.003906c-3.0625 6.582-6.4727 12.992-10.215 19.211-0.32812 0.90625-0.71484 1.9219-1.1758 2.9922-3 6.7734-6.8555 13.133-11.48 18.918-4.6133 6.1875-10.625 11.199-17.539 14.629-2.2773 1.082-4.7773 1.6289-7.3008 1.5898-1.6172-0.24609-2.5781-0.65625-2.7188-1.2852s0.60547-1.3984 2.0039-2.2539c0.74219-0.47266 1.4375-1.0039 2.0898-1.5938 0.71484-0.46484 1.5938-1.3125 2.5508-2.0547 5-4.5312 9.5859-9.5 13.695-14.852l0.30078-0.38672 0.003907 0.003906c-1.5156-0.078125-2.9961-0.48047-4.3398-1.1836-8.8906-4.418-28.621-11.555-36.969-3.6211-6.125 5.793-14.984 2.625-22.559 5.6016-11.688 4.8516-22.02 12.473-30.109 22.203-0.38672 0.66016-0.76953 1.3125-1.207 1.9766-0.30078 0.49609-0.60547 0.98828-0.93359 1.5078s-0.55078 1.0977-0.82422 1.6719h0.003907c-1.332 2.4141-2.4883 4.918-3.4609 7.4961-1.1133 2.918-2.0039 5.918-2.6602 8.9727-0.59766 3.3477-0.875 6.7422-0.82812 10.141 0 0.84766 0 1.7266-0.027344 2.625s0.21875 1.8633 0.30078 2.8281c0.082032 0.96094 0.25 1.9219 0.38672 2.9102l0.16797 1.4844 0.10938 0.71484s0.082031 0.41016 0.10938 0.57422v-0.007813c0.73828 4.5234 1.8789 8.9688 3.4023 13.289 0.96875 3.5508 3.2188 6.6211 6.3125 8.6133l2.332 1.0195-1.0156 2.25h0.003906c-0.72656 1.793-1.207 3.6758-1.4336 5.5977-0.24609 1.8555-0.39453 3.7266-0.4375 5.5977-0.11719 3.0625 0.13281 6.1328 0.74609 9.1367 0.35547 1.8477 1.1133 3.5898 2.2227 5.1055 0.28906 0.43359 0.66406 0.80859 1.0977 1.1016 0.30078 0.27734 0.41016 0.46875 0.35547 0.57812-0.058593 0.10938-0.27734 0.16797-0.65625 0.13672l-0.003906-0.003907c-0.60156-0.007812-1.1914-0.20703-1.6719-0.57422-1.9297-1.3203-3.3672-3.2422-4.0938-5.4609-1.168-3.1836-1.8555-6.5234-2.0273-9.9062-0.15234-2.0664-0.15234-4.1406 0-6.2031 0.097656-1.6484 0.34375-3.2852 0.73828-4.8867-1.5273-0.97656-2.8594-2.2227-3.9375-3.6758-1.4531-1.9805-2.6445-4.1367-3.5391-6.4219-1.7695-4.6133-3.0703-9.3984-3.8711-14.273l-0.16016-0.90625-0.082031-0.74219-0.19141-1.4844c-0.10938-0.95703-0.21875-1.9453-0.35547-2.9102-0.13672-0.96094-0.27734-1.8633-0.27734-2.9102 0-1.0469 0.027344-2.0547 0.027344-3.0625l-0.003907 0.003907c-0.035156-2.6055 0.1875-5.207 0.66016-7.7656-2.3633 6.7031-4.1094 13.613-5.2148 20.637-1.5078 8.4258-3.2109 12.898 1.4531 21.297 1.0352 1.5 1.8906 3.1133 2.5547 4.8125 1.4258 3.6445 2.332 7.4766 2.6875 11.375-0.19141 6.5195 0.42578 13.035 1.8398 19.402 2.625 7.4102 8.125 10.758 14.379 14.715h0.003906c0.74219 0.46875 1.4258 1.0273 2.0273 1.6719 1.0977-5.0469 2.332-9.625 3.5-13.477 2.7695-9.0312 5.1328-14.355 5.8203-14.137 0.76562 0.19141-0.25 5.9297-1.9766 15.066-0.875 4.5586-1.9219 9.9922-2.8516 16.031-1.0938 6.4531-1.7344 12.973-1.9219 19.512-0.09375 3.1836 0.21094 6.3672 0.90625 9.4727 0.29297 1.3008 0.78516 2.5469 1.4531 3.7031 0.57031 0.875 1.3555 1.5938 2.2773 2.0859l1.9453 1.0156-0.38672 1.8125 0.003907-0.003907c-1.0234 4.3203-2.4648 8.5312-4.3086 12.57-1.5352 3.543-2.8281 6.5898-3.7305 9.1406-1.8125 4.9453-2.0312 8.4844-2.7188 8.3984-0.4375-0.058594-1.3984-3.2383-0.30078-9.1875 0.68359-3.3398 1.5938-6.6328 2.7148-9.8516 1.1641-3.3477 2.1445-6.7539 2.9375-10.207-0.75391-0.51562-1.4336-1.125-2.0312-1.8125-0.050781 0.10938-0.10938 0.24609-0.16016 0.35547-2.7188 5.1875-9.2227 10.293-10.184 16.055l-0.003907 0.003906c-0.67578 8.457 0.16016 16.969 2.4727 25.137 1.6016 12.902 1.2969 25.969-0.90625 38.781-1.3984 11.09-9.6602 27.832 0.41016 36.012v-0.003906c1.3164 1.3203 1.5742 3.3594 0.63281 4.9688-0.19141 0.38672-0.35547 0.74219-0.54688 1.1289 0.29297-0.019531 0.58984 0.019532 0.875 0.10938 0.42578 0.13281 0.83984 0.30469 1.2383 0.51953l0.60547 0.27734c0.49609 0.16016 0.98828 0.32813 1.5078 0.51953 1.1445 0.39453 2.2734 0.85156 3.3711 1.3672 1.1797 0.60547 2.5273 1.2383 3.5977 1.8945 0.51953 0.30078 1.0156 0.57813 1.5391 0.90625 3.9375-9.9883-3.2422-15.941-3.625-25.441h-0.003907c-0.26953-7.3281 0.21875-14.668 1.457-21.898 1.2422-7.2305 2.9102-14.379 4.9961-21.41 0.015625-0.20703 0.070313-0.41406 0.16406-0.60156 2.0039-6.832 4.2812-13.586 6.6406-20.418 0.16797-2.0859 0.25-4.2578 0.25-6.5625-0.058594-5.7617-0.66016-12.156-0.96094-19.074v-1.5352l-0.003906-0.003906c0.046875-0.83984 0.27344-1.6641 0.66406-2.4141 0.5625-0.79688 1.1758-1.5586 1.8359-2.2773 0.44141-0.56641 0.84375-1.1641 1.207-1.7812l0.16797-0.22266 0.27734-0.57422 0.51953-1.0977c1.3008-2.6523 2.4102-5.3945 3.3203-8.207 1.4883-4.9062 2.707-9.8906 3.6484-14.934 1.7031-8.7227 3.1602-14.188 3.9375-14.047 0.77734 0.14063 0.6875 5.625-0.027344 14.598-0.42578 5.3359-1.3047 10.625-2.625 15.809-0.83984 3.1172-1.9414 6.1562-3.293 9.0859l-0.49609 1.0977-0.24609 0.54688-0.082031 0.13672-0.14062 0.27734c-0.023438 0.03125-0.039063 0.070312-0.050781 0.10938l-0.19141 0.30078h-0.003906c-0.47266 0.80078-0.99219 1.5703-1.5625 2.3047-0.44531 0.56641-0.92969 1.1016-1.4531 1.5938 0.082031-0.27734-0.10938-0.050782-0.10938 0.027343v0.98828c0 3.9375 0.30078 7.7969 0.49609 11.555h-0.003907c4.1484-12.066 9.4922-23.688 15.945-34.691 4.8125-7.875 10.598-16.523 12.078-25.812 0.65625-4.3359 1.125-8.5625 2.0547-12.734-1.0117-2.9375-2.4648-5.707-4.3086-8.207-1.8125-2.4414-3.7578-4.7188-5.4336-6.8047-2.0312-1.4805-3.9141-3.1562-5.625-4.9961-2.5781-3.0352-4.4102-6.6328-5.3516-10.5-0.32813-1.7266-0.55078-3.5-0.71484-5.1836 0.027344-1.0703 0.050781-2.1133 0.10938-3.1836v-0.003907c-2.2891-1.4258-4.3438-3.1953-6.0938-5.25-1.918-2.1602-3.6172-4.5078-5.0742-7.0039-2.4648-4.0547-4.3789-8.418-5.6875-12.98-0.93359-3.0273-1.3594-6.1914-1.2617-9.3555 0.10938-2.2539 0.65625-3.3203 0.93359-3.3477 0.41016 0 0.51953 1.2617 1.0156 3.2656v-0.003907c0.66406 2.8438 1.5742 5.625 2.7148 8.3125 1.7031 4.0586 3.8203 7.9297 6.3164 11.555 1.4336 2.1406 3.043 4.1602 4.8125 6.0391 1.75 1.957 3.8555 3.5664 6.2031 4.7461l1.5938 0.73828-0.03125 1.9766c-0.027344 1.3984-0.027344 2.8008-0.050781 4.2539 0.16797 1.375 0.32812 2.7734 0.57812 4.1719l-0.003907 0.003906c0.75391 2.9961 2.1484 5.7969 4.0859 8.207 2.0352 2.2578 4.3516 4.2461 6.8906 5.9141 4.9375 3.375 10.062 5.9805 14.051 8.6992 2.3945 1.5586 4.6367 3.3438 6.6953 5.3242 10.055 5.2891 20.961 8.7734 32.223 10.293-1.6875-2.3594-3.1016-4.8984-4.2266-7.5742-1.1523-2.7305-1.9453-5.5977-2.3633-8.5352-0.62109-3.4375-0.36328-6.9805 0.74609-10.293 0.48438-1.4883 1.0508-2.9492 1.6992-4.375 0.57812-1.2617 1.043-2.4141 1.3125-3.1289l0.13672-0.30078 0.10938-0.49609 0.21875-0.98828 0.039062-0.26953v-0.27734c0-0.082031 0.050781-0.4375 0.050781-0.4375-0.007812-0.94922-0.10938-1.8945-0.30078-2.8281-1.1055-3.9453-2.5859-7.7773-4.418-11.441-1.3789-2.8125-2.4062-5.7773-3.0625-8.8398-0.4375-2.3906-0.058593-3.5703 0.49609-3.7891 0.62891-0.27734 1.5352 0.875 2.8008 2.3594 1.3125 1.5938 3.1289 3.9375 5.4062 6.9727 2.9922 3.7656 5.3555 7.9922 7 12.512 0.375 1.5664 0.5625 3.1719 0.55078 4.7773l-0.30078 1.3125v0.49609l0.24609 0.62891 0.10938 0.49609-0.078125 0.98828-0.058594 0.51953-0.16797 0.66016c-0.41797 1.5938-0.96094 3.1562-1.6172 4.6641-0.51953 1.3125-1.0156 2.5-1.3711 3.5977-0.69141 2.0391-0.88281 4.2109-0.55078 6.3398 0.082031 1.2383 0.26562 2.4688 0.55078 3.6797 0.32812 1.0156 0.35547 1.9453 0.79297 3.0195 1.3555 3.9336 3.0352 7.7539 5.0195 11.414 0.79688 1.4844 1.457 2.8555 2.0352 4.1484v-0.003906c17.246 19.922 37.84 36.68 60.852 49.52 1.7852 0.98438 3.543 1.9727 5.1875 3.0625h0.003906c-0.16406-0.74219-0.24609-1.4961-0.24609-2.25-0.003907-1.9648 0.36719-3.9141 1.0977-5.7422-6.4219-5.0742-10.402-8.8906-9.8281-9.6875 0.57812-0.79687 6.3672 2.0312 14.27 6.9414l1.4844 0.93359-0.6875 2.0352 0.003906 0.003906c-0.67578 1.6914-1 3.5-0.96484 5.3242 0.14453 1.7812 0.92187 3.457 2.1875 4.7188l0.98437 0.98438 0.21875 0.14062 0.60547 0.41016c0.73047 0.53125 1.5039 1.0078 2.3047 1.4258 0.66016 0.35938 1.7031 0.98828 2.5 1.4844 0.89844 0.62109 1.75 1.3086 2.5508 2.0547 0.64453 0.70312 1.2383 1.4453 1.7852 2.2227 0.52344 0.78516 1 1.6016 1.4258 2.4453 0.67969 1.3945 1.2578 2.8359 1.7266 4.3125 1.625 5.3516 1.625 8.75 0.9375 8.9453-0.76953 0.21875-2.1875-2.8828-4.5586-7.4375-0.60547-1.0977-1.2852-2.3047-2.082-3.5-0.38672-0.63281-0.82812-1.0469-1.207-1.6172-0.5-0.59766-1.0312-1.168-1.5938-1.7031-0.60547-0.35937-1.0469-0.79687-1.7852-1.207-0.73828-0.41016-1.5938-0.82812-2.4141-1.2656-0.30078-0.16797-0.57812-0.32812-0.875-0.46875 4.2969 11.77 9.2383 23.297 14.789 34.527 7.4102 15.891 14.547 28.133 13.918 44.246 0.89844 4.5352 1.3242 9.1523 1.2656 13.777 1.8359 0.32812 3.7578 0.60547 5.7344 0.76562 1.4258 0.125 2.8555 0.125 4.2773 0 0.88672-0.054687 1.7461-0.29687 2.5273-0.71484l0.14062-0.16016c0.51953-0.55469 0.88281-1.2383 1.0469-1.9844zm-19.332-419.04c8.1406-5.6328 13.406-14.551 14.41-24.398-11.746 7.5469-24.895 21.266-28.68 34.223 4.6641-3.4023 9.625-6.3945 14.27-9.8242zm-5.625 418.21c1.6172-7.1367 3.9766-17.5 1.3984-24.676-2.7461-7.625-7.3008-14.297-10.566-21.68-2.9648-6.7539-6.2617-13.34-9.4141-19.98-0.29688 2.4297 0.16016 4.8945 1.3125 7.0547 1.4297 1.668 2.5508 3.5703 3.3242 5.625 2.3047 8.4258 0.24609 19.594-0.33203 28.242-0.65625 10.566-4.375 22.504-2.6875 32.992l0.027343 0.027344-0.003906-0.003906c1.5898 2.9766 2.8242 6.125 3.6797 9.3867 1.7891-0.03125 3.5742 0.035156 5.3516 0.19141 0.66797 0.074219 1.3398 0.074219 2.0039 0 0.30078-0.027343 0.51953-0.13672 0.84766-0.60547v0.003906c0.39453-0.625 0.71484-1.2891 0.96484-1.9805 1.0977-4.9375 2.4648-9.8086 4.0938-14.598zm1.207 32.578c0.82422-0.60547 0.082032-3.8945-0.19141-5.375v-0.003906c-1.8594-1.4141-3.332-3.2734-4.2852-5.4062-0.10156-0.24219-0.19141-0.48828-0.26953-0.74219-0.14062 0.078125-0.25 0.19141-0.41406 0.26953v0.003906c-1.2266 0.61328-2.5703 0.94922-3.9375 0.98828-2.3594 0.14062-4.4727 0.058594-6.6406 0.33203l-0.51953 0.050782-0.51953 0.058593c-0.21875 3.457-0.66016 6.9414-0.90625 10.727h-0.003907c3.5898 0.67188 7.25 0.89453 10.895 0.66016 2.3711 0.16016 4.7344-0.38672 6.793-1.5664zm-0.19141-470.39c-1.7461-0.058593-3.4883-0.22266-5.2148-0.49219-2.3008-0.36719-4.582-0.85156-6.8359-1.457-1.1523-0.30078-2.332-0.65625-3.5391-1.043-0.63281-0.25-1.1562-0.41016-1.8945-0.71484l-1.0156-0.4375-0.82422-0.38672 0.003906 0.003907c-1.9648-1.1055-4.0352-2.0156-6.1758-2.7148-0.46875-0.078125-0.90625-0.1875-1.3438-0.24609l-1.375-0.082031c-0.41016 0.027343-0.875 0.058593-1.3125 0.058593s-1.3125 0.21875-1.8125 0.30078c-1.7578 0.26953-3.4531 0.85938-4.9961 1.75-1.043 0.79688-1.8633 1.1523-1.8633 2.1875v1.207c2.7422 0.93359 4.8125 1.75 6.3672 2.25 2.7461 1.0156 5.0781 1.457 5.0781 2.0039-0.027344 0.41016-1.7852 0.875-4.9688 0.66016v-0.003907c-4.293-0.57031-8.5352-1.4688-12.688-2.6875-1.2422-0.29297-2.5-0.52344-3.7617-0.6875-0.65625-0.082031-1.4531-0.082031-2.2227-0.13672-0.32812 0-0.90625-0.058593-1.0156-0.03125l-1.043 0.082032v0.003906c-2.8398 0-5.6094 0.88281-7.9297 2.5234-2.5898 2.0312-4.7227 4.5859-6.2578 7.4922-1.9258 3.1836-3.707 6.918-6.4219 10.621v0.003906c-1.6602 2.2852-3.7148 4.2539-6.0664 5.8164-1.0742 0.72656-2.2266 1.3359-3.4336 1.8125l-0.38672 0.16016-0.6875 0.27734-0.65625 0.27734c-0.4375 0.19141-0.90625 0.30078-1.3125 0.51953h0.003906c-3.2656 1.5234-5.9922 4.0039-7.8242 7.1094-1.5586 2.4648-1.8828 5.5195-0.875 8.2578 1.1523 2.3438 2.9531 4.3047 5.1914 5.6523l0.76953 0.51953v0.003906c1.0938-1.1133 2.1289-2.2812 3.1016-3.5 1.0156-1.1562 1.7812-1.7266 2.2227-1.5391 0.44141 0.1875 0.49609 1.1562 0.19141 2.7227v-0.003907c-0.42188 2.4023-1.4414 4.6602-2.9648 6.5625-0.57031 0.73828-1.2695 1.3711-2.0586 1.8672-0.80469 0.5625-1.6875 1.0039-2.625 1.3125-1.8047 0.64062-3.6719 1.0781-5.5703 1.3125-0.49609 0.050781-0.95703 0.13672-1.4531 0.19141v0.003906c-0.28906 0.085938-0.58203 0.16016-0.875 0.21875-0.32422 0.082032-0.63672 0.20313-0.93359 0.35547-0.33203 0.11328-0.64844 0.26953-0.93359 0.46484-1.4453 0.82031-2.7578 1.8555-3.8945 3.0625-4.2461 4.6758-7.4961 10.164-9.5547 16.137 0.57812-0.12109 1.1602-0.21094 1.75-0.27344 1.0156-0.10938 2.0391-0.14453 3.0625-0.10938 0.92969 0.046875 1.8555 0.15625 2.7734 0.32812 2.4062 0.66406 4.8555 1.168 7.3281 1.5117 1.4141-0.13672 2.7422-0.75391 3.7578-1.75 0.96094-0.79688 1.7031-1.2656 2.1445-1.0469 0.44141 0.21875 0.51953 1.0703 0.10938 2.5234-0.28516 0.92969-0.74219 1.7969-1.3477 2.5547-0.90234 1.1758-2.1484 2.0391-3.5664 2.4688-3.043 0.59375-6.1719 0.61328-9.2227 0.058594-2.7695-0.26172-5.5547 0.26172-8.043 1.5078-4.7227 2.7305-8.5273 6.7969-10.938 11.691-0.84766 1.7031-1.5938 3.1016-2.1406 4.1992 0.21875-0.082031 0.4375-0.16016 0.62891-0.21875h0.003907c1.7305-0.55859 3.5312-0.88281 5.3516-0.95703 6.5625-0.25 9.9375 1.8633 9.7188 2.4688-0.19141 0.875-3.7578 0.30078-9.1406 1.5938v-0.003906c-3.0195 0.64453-5.8086 2.0977-8.0703 4.1992-1.1602 1.1211-1.9805 2.5508-2.3633 4.1172-0.050781 0.19141-0.050781 0.4375-0.10938 0.62891 1.3203-0.43359 2.7031-0.63672 4.0938-0.60156 3.0312 0.23828 6.0078 0.96094 8.8086 2.1367 11.691 5.7656 18.961-6.6133 24.344-13.199 0.93359-1.207 1.8359-2.3047 2.6914-3.3477v0.003907c-0.49219 0.37109-1.0312 0.68359-1.5977 0.92578l-0.79688 0.35938-0.49609 0.1875-0.058593 0.03125h-0.13672l-0.27734 0.050781-0.51953 0.082032c-0.71484 0.10937-1.3984 0.19141-2.0859 0.25h0.003906c-2.3203-0.039063-4.6133-0.52344-6.75-1.4297-2.9883-1.168-5.5977-3.1367-7.5469-5.6875-0.53516-0.63672-0.92969-1.3828-1.1562-2.1875-0.16016-0.54688-0.13672-0.93359 0.03125-1.0703 0.16797-0.14063 0.54687-0.082032 1.0664 0.19141 0.51953 0.27734 1.1562 0.875 2.0039 1.207 2.2109 1.3359 4.6211 2.3086 7.1367 2.8828 1.5898 0.38281 3.2344 0.50391 4.8633 0.35547 0.38672-0.10938 0.73828-0.21875 1.125-0.30078l0.30078-0.078125h0.027344l0.55078-0.30078-0.003906-0.003907c0.77344-0.42187 1.4766-0.95703 2.0859-1.5898 3.1992-3.6914 5.9961-7.7148 8.3398-11.996 1.1562-2.0312 2.2266-4.4453 3.293-6.7773s2.0859-4.668 3.1602-6.832c0.13672-0.32812 0.30078-0.60547 0.4375-0.90625v-0.003906c-2.0625 1.9805-4.5781 3.4219-7.3281 4.2031-3.0273 0.95312-6.332 0.40234-8.8867-1.4844-0.65234-0.48047-1.1875-1.0977-1.5664-1.8125-0.24609-0.49609-0.30078-0.82422-0.13672-0.98828 0.65625-0.93359 4.2539 2.0859 8.9453-0.32812 2.8477-1.5664 5.2148-3.8711 6.8594-6.6719 0.47656-0.76562 0.89844-1.5625 1.2656-2.3828l0.30078-0.79688c0.058594-0.097656 0.10547-0.19531 0.13672-0.30078l0.13672-0.38672c0.19141-0.49609 0.35938-1.0156 0.55078-1.5352 0.73828-2.5938 1.8008-5.082 3.1562-7.4102 0.90625-1.3438 2.0391-2.5117 3.3477-3.4609 1.125-0.84375 2.3164-1.5859 3.5664-2.2227 2.0625-0.95703 4.0352-1.8945 5.875-2.8516v-0.003906c3.2188-1.6406 6.3164-3.5 9.2773-5.5703 0.60547-0.4375 1.1523-0.84766 1.6445-1.2617 4.2148-4.4453 8.8984-8.4219 13.969-11.855-2.4375 0.12891-4.8789-0.046875-7.2695-0.51953-2.625-0.60547-4.8555-1.4844-6.918-1.9258-1.6562-0.53906-3.4609-0.37891-4.9961 0.4375-0.18359 0.089843-0.35938 0.19922-0.51953 0.32812l-0.27734 0.21875-0.13672 0.082032-0.027344 0.027344-1.3477 1.3125-0.875 1.0977c-0.30078 0.32812-0.63281 0.90625-0.96094 1.3125-1.2617 1.8945-2.3906 3.9375-3.5977 5.957h0.003906c-1.9961 4.1016-5.0586 7.5898-8.8672 10.098-0.91016 0.50781-1.9023 0.85938-2.9336 1.043-0.49609 0.082031-0.96094 0.14062-1.3984 0.22266l-1.3125-0.082031c-1.3672-0.125-2.6992-0.48828-3.9375-1.0742-1.8438-1.125-2.6641-1.9453-2.4453-2.3594 0.21875-0.41016 1.3984-0.46875 3.1836-0.25v0.003907c2.2188 0.20703 4.4375-0.38672 6.2539-1.6719 2.5352-2.5625 4.5195-5.6172 5.8203-8.9766 0.98828-2.0312 2.0859-4.2773 3.5-6.6133 0.41016-0.57422 0.71484-1.125 1.207-1.7812 0.49609-0.65625 1.0156-1.2891 1.5391-1.8945l1.3711-1.375 0.27734-0.24609 0.13672-0.10938 0.25-0.19141 0.51953-0.38672h-0.003906c0.35156-0.27344 0.72656-0.51562 1.125-0.71094 1.5898-0.92969 3.3789-1.4688 5.2148-1.5664 1.625-0.058594 3.2461 0.12891 4.8125 0.55078 2.7734 0.73828 5.0234 1.75 6.832 2.3047h0.003906c3.5898 0.9375 7.3047 1.2969 11.008 1.0664 2.5742-0.15625 5.1406-0.45703 7.6797-0.90625 0.62891-0.13672 1.1523-0.21875 1.6172-0.30078h0.003906c4.2773-1.2148 8.75-1.5859 13.172-1.0977 3.0117-4.4336 6.4414-8.5664 10.242-12.348zm-37.848 407.39c0.082031-3.1016 0.027344-6.2305 0-9.4688-0.027344-6.5312 1.5078-15.504-0.76562-21.684-4.7773-12.871-15.812-20.031-25.473-28.898-9.5-8.7852-17.398-15.289-20.391-24.758-0.30078-0.30078-0.57812-0.57812-0.875-0.90625s-0.65625-0.79688-1.043-1.207l-1.375-1.207c-0.46484-0.41016-0.90625-0.82422-1.3711-1.2344-0.46484-0.41016-0.98828-0.96094-0.9375-0.82422l-0.078125-0.082031-0.33203-0.14062-0.98438-0.4375 0.003906 0.007813c-0.42188-0.21484-0.82422-0.46094-1.207-0.73828l-0.30078-0.27734-0.16797-0.14062-0.35938-0.35547v0.003906c-0.03125-0.058594-0.066406-0.11328-0.10938-0.16797-0.74609-1.1055-1.2539-2.3594-1.4805-3.6758-0.20703-0.95703-0.31641-1.9297-0.32812-2.9102-0.050781-3.4297 0.41016-5.3828 1.125-5.543 0.71484-0.16016 1.75 1.8359 2.7461 4.8125 0.77734 3.582 3.3359 6.5156 6.7773 7.7656-0.30078-0.082031 0.60547-3.0625 0.60547-3.4023h-0.003907c-0.17188-1.3203-0.61719-2.5938-1.3125-3.7305-0.78906-1.8828-1.957-3.582-3.4297-4.9961-4.418-4.375-8.6719-8.9727-12.688-13.75-0.37109 0.058594-0.74609 0.078125-1.125 0.054688-4.6523-0.32813-9.2656-1.0977-13.777-2.3047 0.30078 3.5 0.37891 7 0.84766 10.5h0.003906c0.25 2.7031 0.97266 5.3438 2.1367 7.7969 0.75 1.5195 1.375 3.0977 1.8711 4.7188 0.4375 1.3125 0.32812 2.9102 0.84766 4.1172 0.98047-1.9453 2.1484-3.7891 3.4883-5.5078 2.4414-2.7422-0.52344-5.6523-0.98828-8.9453-0.35938-1.9531-0.03125-2.8555 0.30078-2.9648 0.33203-0.10938 0.875 0.90625 1.7266 2.2227v-0.003906c1.1211 1.7031 2.0859 3.5039 2.8828 5.3828 0.875 1.8789 0.99219 4.0195 0.32812 5.9844-0.79687 1.3711-2.5508 2.2227-3.5 3.6484-0.55469 0.73047-1.0664 1.4922-1.5352 2.2812-0.90234 1.4609-1.4062 3.1367-1.457 4.8555 0.19141 1.2656 0.57031 2.4961 1.1289 3.6484 0.20312 0.20312 0.42188 0.38672 0.65625 0.55078 1.5117 1.2695 3.2188 2.2891 5.0547 3.0195 1.9453 0.875 3.9375 1.6445 5.9805 2.6602l0.90625 0.52344 0.62891 0.41016c0.41016 0.26953 0.82812 0.57422 1.207 0.84766 0.875 0.60547 1.6758 1.375 2.4453 2.0312 1.3984 1.3477 2.5781 2.625 3.5977 3.7891 2.0312 2.3633 3.6484 4.0586 4.8125 5.2969 1.207 1.125 1.8633 1.8945 1.7031 2.25-0.16016 0.35547-1.1797 0.21875-2.9414-0.46484v0.003906c-2.2773-1.1484-4.3984-2.582-6.3125-4.2578-1.207-0.98828-2.4922-2.0312-3.8672-3.1016-0.66016-0.46484-1.2656-0.93359-2.0312-1.3984-0.41016-0.24609-0.85156-0.49609-1.3125-0.73828l-0.51953-0.30078v-0.003907c-0.035156-0.023437-0.074219-0.042968-0.10938-0.058593l-0.089844-0.042969-0.32812-0.13672c-1.3125-0.57812-2.8281-1.1289-4.418-1.75 0.60547 0.76953 1.3125 1.5391 2.0312 2.3359 7.3008 7.5742 16.383 12.293 24.758 18.469 8.125 6.043 13.227 14.574 22.918 18.609h-0.003906c1.2109 0.37109 2.1914 1.2617 2.6719 2.4336 0.47656 1.1719 0.40234 2.4961-0.20312 3.6055-1.3438 2.5234 2.8008 8.2852 2.1445 12.652 0.44531 1.1055 0.94922 2.1875 1.5078 3.2383 0.46484 1.043 0.98828 2.1133 1.5078 3.2656 0.60547 1.1562 1.2344 2.3633 1.8633 3.5977l0.003906-0.003906c0.90625 2.0352 2.082 3.9375 3.5 5.6562 0.32812 0.28125 0.6875 0.51953 1.0703 0.71484 0.050782 0.050781 0.46875-0.082031 0.65625-0.10938-0.10937 0.078125 0.14063-0.03125 0.19141-0.03125 0.27734-0.027344 0.25-0.082031 0.4375-0.10938 0.24609-0.28125 0.40234-0.62109 0.45703-0.98828zm-0.24609 5.5742v0.003907c-0.14062 0.058593-0.28516 0.10547-0.4375 0.13281-1.8516 0.41797-3.793-0.015625-5.293-1.1797-1.2422-0.94531-2.3008-2.1094-3.1328-3.4297-0.41016-0.60547-0.76562-1.207-1.125-1.8125l-0.60547-1.0156-0.46484-0.93359c-0.60547-1.2344-1.1797-2.4727-1.75-3.6484-0.49609-1.3125-0.95703-2.5547-1.375-3.7344h0.003907c-0.125-0.29297-0.22266-0.59375-0.30078-0.90625-2.625 1.0977-5.4023 1.75-4.375 10.062 0.98828 7.6875 6.668 20.125 17.539 15.863 0.66016-3.0977 1.0977-6.2383 1.3125-9.3984zm-157.89 56.758c10.129 0.90625 6.3906-5.543 0.95703-10.293l-1.75-0.90625c-1.75-0.90625-3.5977-1.8906-5.3242-2.9102-1.1562-0.68359-2.0625-1.125-3.0625-1.7031s-2.1875-0.98438-3.1836-1.5078c-0.57812-0.24609-1.125-0.48828-1.6758-0.76562-0.24609-0.14062-0.62891-0.32812-0.875-0.49609-0.32812 0.13672-0.68359 0.35547-1.0156 0.51953l-0.13672 0.082031 0.003906 0.003906c-0.54297 0.22266-1.0234 0.57031-1.4023 1.0156-1.5117 4.207-2.5391 8.5742-3.0625 13.012 6.7305 1.8438 13.594 3.1641 20.527 3.9492zm-16.602-312.21c0.46484-0.52344 0.95703-1.0469 1.4531-1.5391v-0.003907c-3.9531-7.1797-9.6289-13.262-16.52-17.699-6.9609-4.5938-14.809-7.6758-23.031-9.0547-7.2812-1.2812-14.773-0.60938-21.707 1.9453-6.0234 2.3945-11.078 6.7305-14.355 12.324-0.78125 1.3203-1.4609 2.6953-2.0312 4.1172-0.60938 1.375-1.1133 2.7969-1.5078 4.2539-0.79688 2.9023-1.4023 5.8516-1.8125 8.8359-0.24609 1.5664-0.49609 3.0625-0.82422 4.668-0.3125 1.7695-0.86719 3.4883-1.6484 5.1055-0.53906 1.082-1.2969 2.0469-2.2227 2.8281 0.74219 0.13672 1.457 0.24609 2.0859 0.32812l1.0703 0.058594 0.68359-0.082031c0.57812-0.058594 1.1562-0.10938 1.75-0.14063l0.003906-0.003906c1.8906-0.30859 3.5547-1.4258 4.5547-3.0625 0.94922-1.8555 1.5703-3.8594 1.8359-5.9297 0.35938-2.1406 0.63281-4.2266 1.0469-6.2031 0.38672-3.3164 1.8086-6.4258 4.0586-8.8906 0.58984-0.65625 1.3477-1.1484 2.1875-1.4258 0.57812-0.22266 0.90625-0.25 1.043-0.11328 0.13672 0.13672 0 0.49609-0.32812 0.96094v0.003906c-0.51172 0.60938-0.94531 1.2852-1.293 2-1.1758 2.5-1.793 5.2266-1.8125 7.9844-0.082031 1.9258-0.21875 4.0078-0.32812 6.2617-0.13281 2.7109-0.79297 5.3672-1.9453 7.8242-0.34375 0.74219-0.79687 1.4258-1.3477 2.0273-0.54297 0.68359-1.1797 1.2852-1.8945 1.7852-0.69922 0.50781-1.4531 0.94141-2.25 1.2891-0.79688 0.25-1.5938 0.52344-2.4141 0.79688-0.79687 0.082031-1.5938 0.19141-2.4141 0.30078l-0.60547 0.058594-0.30078 0.027344-0.16797 0.027343h-0.32812l-1.043-0.050781 0.003906-0.007812c-1.5781-0.14844-3.1445-0.38672-4.6953-0.71094-2.8008-0.55078-5.4062-1.125-7.875-1.3984-1.4531 0.24609-2.8789 0.49609-4.3047 0.73828-1.582 0.27344-3.1367 0.69531-4.6406 1.2617l-0.21875 0.30078-0.19141 0.24609-0.41016 0.875h-0.003906c-0.019531 0.16016-0.058594 0.31641-0.10938 0.46875-0.31641 1.7383-0.30859 3.5156 0.027344 5.25 0.57812 3.5977 1.3984 6.6719 1.5664 8.8945s-0.10938 3.5391-0.46875 3.5391-0.82422-1.0977-1.6445-3.0195c-1.2422-2.793-2.3438-5.6523-3.293-8.5586-0.35156-1.25-0.59766-2.5273-0.74219-3.8164-0.92969 1.4141-1.5742 3-1.8945 4.6641-0.62891 3.4414-0.71094 6.9609-0.24609 10.43 0.16797 1.7852 0.30078 3.5 0.33203 5.2148 0.011718 0.79688-0.023438 1.5938-0.10938 2.3906 1.5039-1.082 2.9062-2.293 4.1953-3.625 1.4297-1.5156 2.1875-2.4727 2.4727-2.3047 0.28516 0.16797 0.027343 1.3438-1.0703 3.3477h-0.003906c-1.7305 2.7344-3.9102 5.1562-6.4492 7.1602-3.0625 2.6641-7.1602 5.3242-10.676 8.9453l0.003906 0.003906c-1.1836 1.2227-2.1992 2.5977-3.0195 4.0898v1.0977c0.41016-0.35938 0.84766-0.6875 1.2617-1.0156 0.52344-0.38672 1.0703-0.71484 1.5938-1.0469 0.25-0.21875 0.46875-0.4375 0.71484-0.65625h-0.003906c0.89844-0.74219 1.8438-1.4297 2.8242-2.0586l1.2891-0.62891 0.63281-0.32812 0.16016-0.082031 0.35938-0.16797 0.082031-0.027344 0.35547-0.13672c0.96094-0.33203 1.9219-0.66016 2.8555-0.96094 0.65625-0.21875 1.2852-0.41016 1.9219-0.60547h0.003906c2.1133-1.2305 4.0234-2.7852 5.6523-4.6094 2.0391-2.125 4.293-4.0273 6.7266-5.6875 0.46875-0.32812 0.90625-0.54688 1.375-0.84766 0.26953-0.82422 0.48828-1.6758 0.71484-2.5234 0.51953-1.8945 0.93359-3.8398 1.5898-5.793l-0.007813-0.003906c0.60938-2.1367 1.6523-4.1289 3.0625-5.8438 0.32812-0.37891 0.69922-0.71875 1.1016-1.0156l0.24609-0.21875 0.058594-0.058593 0.21875-0.16797c0.058594-0.027344 0.25-0.13672 0.25-0.13672l0.76562-0.41016-0.003906 0.003906c0.47266-0.26562 0.98047-0.46875 1.5078-0.60156 0.48047-0.16797 0.98047-0.28906 1.4844-0.35938 1.7148-0.25 3.4531-0.33203 5.1875-0.24609 2.6211 0.22266 5.25 0.26172 7.875 0.10938 1.7578-0.10156 3.4219-0.84375 4.668-2.0859 0.46484-0.46484 0.84375-1 1.125-1.5938 0.30078-0.44141 0.54297-0.92188 0.71484-1.4258 0.35547-0.84766 0.62891-1.2617 0.82422-1.2344 0.19141 0.027344 0.27734 0.54688 0.27734 1.4531h-0.003907c0.019531 0.58984-0.054687 1.1836-0.21875 1.75-0.19531 0.83594-0.53125 1.6328-0.98828 2.3594-1.3516 2.0039-3.4453 3.3867-5.8203 3.8398-2.7852 0.53125-5.6172 0.78906-8.4531 0.76953-1.4492 0.042969-2.8906 0.21875-4.3086 0.51953-0.33203 0.070313-0.65234 0.17188-0.96484 0.30469-0.29297 0.074218-0.57031 0.20703-0.82031 0.38281l-0.35547 0.21875-0.082032 0.058594-0.19141 0.19141c-0.30078 0.26953-0.74219 0.62891-0.76953 0.82422-0.80078 1.2383-1.3867 2.6016-1.7305 4.0312-0.30078 1.0977-0.55078 2.3047-0.82422 3.5391 1.8945-0.93359 3.6758-1.75 5.25-2.5508 1.7852-0.875 3.3477-1.75 4.6953-2.4727 1.2617-0.82422 2.4414-1.3711 3.375-2.0547 1.8125-1.3477 2.9648-1.9766 3.2383-1.7031 0.26953 0.27734-0.35547 1.3984-1.7266 3.2383h-0.003907c-0.94141 1.0977-1.9648 2.1211-3.0625 3.0625-1.4531 1.207-2.9727 2.3242-4.5586 3.3516-2.625 1.75-5.6875 3.457-8.8086 5.4844-0.22266 0.6875-0.46875 1.375-0.74219 2.0625-0.99609 2.4414-2.6211 4.5781-4.7109 6.1875l-1.3125 0.95703-1.7031 0.98828c-1.0703 0.61719-2.1914 1.1484-3.3438 1.5938-4.6719 1.6719-9.2344 3.625-13.668 5.8438-0.51953 0.45312-1.0039 0.9375-1.4531 1.457-0.46875 0.51953-0.96094 1.0977-1.4297 1.7031h0.27734c2.1406 0.078125 4.5 0 6.4805 0.027344h-0.003906c2.2773 0.10938 4.5586-0.10547 6.7773-0.63281 0.58203-0.90625 1.1875-1.8125 1.8125-2.7188l-0.003906 0.003906c1.7148-2.6523 3.7773-5.0625 6.125-7.168 2.4258-2.1602 5.293-3.7617 8.4023-4.6914 2.7461-0.72656 5.5625-1.168 8.3984-1.3125 2.6602-0.13672 4.9102-0.4375 7.1602-0.68359h0.003906c3.9844-0.44141 7.7461-2.0781 10.781-4.6953 2.418-2.6523 3.9453-5.9883 4.375-9.5508 0.54297-3.543 0.81641-7.125 0.82422-10.711 0.050781-3.457 0.027344-6.7773 0.16016-9.9062v0.003907c0.023438-3.0352 0.33984-6.0586 0.9375-9.0312 0.98047-4.8516 3.1406-9.3828 6.293-13.199 2.2383-2.5898 5.1719-4.4844 8.457-5.4609 1.082-0.29687 2.1953-0.47266 3.3203-0.51953 0.75781-0.089843 1.5234-0.0625 2.2734 0.078125 1.207 0.16797 1.75 0.35938 1.75 0.55078 0 0.19141-0.57812 0.41016-1.7031 0.62891v0.003906c-0.69922 0.097656-1.3906 0.26562-2.0586 0.49219-0.97266 0.22656-1.918 0.55078-2.8281 0.96094-2.6055 1.2266-4.8594 3.0859-6.5625 5.4102-2.418 3.5547-3.9883 7.6211-4.582 11.883-0.39844 2.7227-0.53516 5.4805-0.41406 8.2344 0.082031 3.0625 0.16016 6.3672 0.27734 9.8789 0.14453 3.875-0.011718 7.7578-0.46875 11.609-0.48828 4.793-2.4648 9.3125-5.6523 12.922-3.8633 3.6602-8.7617 6.0352-14.027 6.8086-4.9375 0.43359-9.8477 1.1445-14.707 2.1406-2.1406 0.67188-4.1016 1.8164-5.7422 3.3516-0.60547 0.57812-1.1758 1.1797-1.7266 1.8125v-0.003906c2.4492-1.4102 5.0938-2.457 7.8477-3.1016 6.2031-0.94922 12.453-1.5625 18.723-1.8359 2.7812-0.28906 5.4961-1.0273 8.0391-2.1875 2.4688-1.2539 4.6719-2.9805 6.4766-5.0781 1.8789-2.2578 3.3594-4.8203 4.375-7.5742 1.0664-3.0859 1.8711-6.25 2.4141-9.4688 0.90234-7.4453 2.3359-14.82 4.2852-22.066 1.2344-4.1289 3.2344-7.9883 5.8945-11.375 0.66406-0.93359 1.4297-1.793 2.2812-2.5547l1.2656-1.2344 1.5352-1.0977c1.0938-0.76562 2.2812-1.3867 3.5391-1.8359 1.3672-0.47656 2.8086-0.71875 4.2578-0.71484 2.7422 0.035156 5.4219 0.83203 7.7383 2.3047 1.9648 1.2227 3.793 2.6484 5.4609 4.2539 1.3125 1.2344 2.5 2.4727 3.6797 3.6797 0-0.14062 0.027344-0.25 0.027344-0.38672h-0.003907c0.007813-1.1836-0.16016-2.3633-0.49219-3.5-0.37891-1.0938-0.91406-2.125-1.5938-3.0625-1.2695-1.7852-2.7539-3.4062-4.418-4.832-2.2422-2.1211-5.0234-3.5859-8.043-4.2266-2.0547-0.30078-3.2109 0.30078-3.3789-0.027344-0.16016-0.10938 0.79688-1.3438 3.4023-1.5938h0.003906c3.5742 0.019531 7.0391 1.2266 9.8516 3.4297 2.0586 1.4219 3.9141 3.1094 5.5195 5.0234 0.94922 1.1602 1.7344 2.4414 2.3359 3.8164 0.43359 1.0508 0.71875 2.1602 0.84766 3.293 0.35937-0.4375 0.6875-0.875 1.043-1.3125 0.03125-0.27734 0.082032-0.54688 0.11328-0.84766 0.0625-2.1992-0.44922-4.375-1.4844-6.3125-2.7461-4.7578-7.0117-8.4531-12.105-10.5-5.3633-2.4375-10.977-4.2891-16.738-5.5195-4.5195-0.92188-9.1953-0.71094-13.617 0.60547-3 1.0117-5.8242 2.4883-8.3672 4.375-1.8438 1.3984-2.9922 2.1406-3.293 1.8945-0.30078-0.24609 0.30078-1.4844 1.7852-3.4609h-0.003906c2.2891-2.7812 5.1797-5.0039 8.4531-6.5 2.3047-1.0312 4.7422-1.7148 7.2461-2.0352 2.8477-0.32031 5.7188-0.30469 8.5625 0.054687 6.2578 0.98438 12.352 2.8125 18.117 5.4336 3.1992 1.3555 6.1484 3.2383 8.7227 5.5703 2.4727 2.1914 4.4648 4.875 5.8477 7.875 0.58594 1.3125 1.0195 2.6914 1.2969 4.1016zm-13.195 16.957c0.003906-0.03125 0.027344-0.050781 0.058594-0.054687-2.0625-2.1133-3.9375-4.1445-5.8203-5.9023-1.9297-2.3047-4.6133-3.8516-7.5742-4.375-1.9258-0.16797-4.4766 1.7812-6.4531 4.3359-2.0508 2.6172-3.5859 5.5938-4.5273 8.7812-1.8281 6.8906-3.1914 13.898-4.0859 20.969-0.62891 3.7031-1.5859 7.3398-2.8555 10.867-1.375 3.6445-3.3594 7.0234-5.8711 9.9961-2.4961 2.8438-5.5156 5.1836-8.8945 6.8828 2.9453 0.28906 5.9023-0.39453 8.4258-1.9453 0.85547-0.54297 1.6602-1.1602 2.4141-1.8359 0.76172-0.66797 1.4766-1.3828 2.1406-2.1445 1.4336-1.6797 2.7109-3.4922 3.8125-5.4062 2.3359-4.2891 4.1016-8.8672 5.25-13.613 1.3125-4.9141 1.5352-10.266 2.7188-16.141v0.003906c0.57812-3.1797 1.5938-6.2656 3.0195-9.168 0.8125-1.5781 1.8906-3.0039 3.1797-4.2266 1.4023-1.2812 3.1328-2.1523 4.9961-2.5234 2.2266-0.40234 4.5156 0.24219 6.2031 1.75 1.2891 1.1406 2.332 2.5312 3.0625 4.0898 0.078125 0.13281 0.14062 0.26953 0.19141 0.41016 0.1875-0.26172 0.39062-0.51172 0.60938-0.75z"/>
  <path d="m512.38 158.67c3.707 3.9805 5.0547 7.082 4.5 7.4375-0.60547 0.4375-2.8281-1.75-6.918-4.7461-1.0156-0.76953-2.1406-1.5938-3.4023-2.3906-1.2656-0.79688-2.625-1.6445-4.0352-2.4688l0.003906 0.003906c-2.3438-1.332-4.8164-2.418-7.3828-3.2422-0.33203 1.1094-0.74609 2.1914-1.2383 3.2422-0.98438 2.5625-2.6758 4.7891-4.875 6.4336-2.1992 1.6406-4.8164 2.625-7.5547 2.8398-4.2109 0.085938-8.332-1.2461-11.691-3.7891-2.1719-1.5195-4.0781-3.3828-5.6523-5.5156-0.96094-1.4805-1.375-2.4414-1.0977-2.7188 0.27734-0.27734 1.207 0.19141 2.6641 1.2383 1.9648 1.332 4.0117 2.543 6.125 3.625 2.8164 1.5703 6.0312 2.2852 9.2461 2.0547 1.6602-0.14062 3.2305-0.8125 4.4727-1.9219 0.69531-0.58203 1.3242-1.2461 1.8672-1.9766 0.5625-0.83203 1.0586-1.7109 1.4805-2.625 0.67969-1.543 1.2383-3.1406 1.6758-4.7734l0.76953-2.5547 2.332 0.46875c4.1055 0.92969 7.9883 2.6641 11.418 5.1055 1.4258 0.97656 2.7891 2.0391 4.0859 3.1797 1.1328 0.96094 2.2031 1.9961 3.207 3.0938z"/>
  <path d="m488.92 109.93s0.027343 0 0-0.027344c-0.027344-0.027344-0.03125-0.058594 0-0.16797v0.003906c0.39062-0.69141 0.93359-1.2852 1.5938-1.7266 0.47656-0.30859 1.0078-0.52344 1.5625-0.63281l0.41016-0.082031 0.49609-0.03125c0.19922-0.015625 0.40234-0.003906 0.60156 0.03125 0.27734 0.027344 0.60547 0.082031 0.875 0.13672l0.65625 0.19141c0.41406 0.13672 0.79688 0.30078 1.1797 0.46875 0.30078 0.16016 0.60547 0.32812 0.90625 0.51953h0.003906c0.85547 0.42969 1.6055 1.0508 2.1875 1.8125 0.34766 0.38672 0.66016 0.80859 0.92969 1.2578 0.71094 1.1602 0.98438 2.5312 0.76953 3.875-0.12891 0.75781-0.42969 1.4805-0.875 2.1133-0.21875 0.24609-0.4375 0.49609-0.6875 0.73828l-0.16016 0.19141-0.38672 0.27734-0.21875 0.16797v-0.003906c-0.34375 0.23828-0.72266 0.42578-1.1211 0.54688-0.41797 0.17188-0.86328 0.26562-1.3125 0.27734-0.66797 0.042968-1.3398-0.03125-1.9805-0.21875-1.0039-0.28906-1.9375-0.78516-2.7422-1.457-1.4492-1.0742-2.5-2.6016-2.9922-4.3359-0.18359 0.003906-0.36719 0.023437-0.54688 0.054687-0.48438-0.046875-0.96094-0.12891-1.4297-0.24609-0.69141-0.14844-1.3555-0.39844-1.9727-0.74219-0.98828-0.51953-1.4844-0.98828-1.3984-1.375 0.082031-0.38672 0.6875-0.60547 1.7812-0.73828h-0.003906c1.2188-0.007813 2.4258-0.26172 3.543-0.74219l0.26953-0.078125z"/>
  <path d="m497.88 133.29c0.57812 1.1797 1.0977 2.0039 0.82422 2.2812-0.27734 0.27734-1.0977 0.16797-2.4688-0.875v-0.003906c-1.6523-1.4141-3.1211-3.0312-4.375-4.8125-1.5664-1.9727-3.5-4.7188-5.3242-4.5273-0.82031-0.12109-1.6484-0.14844-2.4727-0.082031-0.82422 0.019531-1.6484 0.082031-2.4688 0.19141-1.0156 0.058594-2.0039 0.14062-3.0625 0.22266-1.1836 0.039062-2.3711-0.054688-3.5391-0.27344-0.625-0.089844-1.2383-0.23438-1.8359-0.4375l-1.75-0.79688c-1.0703-0.59766-2.0586-1.332-2.9375-2.1875-1.543-1.4453-2.8164-3.1562-3.7578-5.0508-1.7656-3.2734-2.1602-7.1133-1.0977-10.68 0.76953-2.3516 2.3945-4.332 4.5547-5.543 1.4844-0.76563 2.4141-0.76563 2.582-0.46484 0.16797 0.30078-0.35938 1.043-1.207 2.1406-1.1172 1.3906-1.8438 3.0508-2.1133 4.8125-0.24609 2.5664 0.38281 5.1367 1.7852 7.3008 0.80078 1.332 1.8086 2.5273 2.9883 3.543 1.0625 0.98438 2.3867 1.6406 3.8125 1.8906 1.7227 0.23828 3.4648 0.26562 5.1914 0.082031 2.0039-0.18359 4.0273-0.10156 6.0117 0.25l0.62891 0.10938 0.058594 0.027344 0.21875 0.027344h0.027344l0.13672 0.058593 0.22266 0.082031 0.46484 0.16016-0.003906-0.003907c0.57812 0.23438 1.1328 0.52734 1.6484 0.875 0.82031 0.61719 1.543 1.3516 2.1406 2.1875 0.92578 1.2461 1.7344 2.5781 2.4141 3.9766 1.1562 2.3125 2.0625 4.2031 2.7031 5.5195z"/>
  <path d="m492.24 506.3-0.14062 0.13672c0.03125-0.027344 0.03125-0.050782 0.058594-0.082032s0.058594-0.027343 0.082031-0.054687z"/>
  <path d="m467.84 295.9c0.11719 2.1484-0.23828 4.293-1.0391 6.2891-0.35938 0.93359-0.76953 1.75-1.0977 2.5-0.35938 0.82422-0.55078 1.1797-0.85156 2.0547l-0.003906-0.003907c-0.39062 1.2031-0.64062 2.4453-0.73828 3.707 0.21875 1.3984 0.30078 3.1602 0.41016 4.6953 1.3594 6.5195 0.85547 13.293-1.457 19.539-0.87109 1.8672-2.3242 3.4023-4.1406 4.375-1.207 0.51953-1.9219 0.51953-2.0547 0.32812-0.16797-0.27734 0.37891-0.79687 1.207-1.6758h-0.003907c1.0312-1.2148 1.7891-2.6367 2.2227-4.1719 1.0273-5.9336 0.76562-12.016-0.76953-17.84l-0.027344-0.19141c-0.19141-1.4258-0.27734-2.7695-0.60547-4.4961-0.027344-0.52344-0.027344-1.1562 0-1.75l0.003906-0.003906c0.015625-0.46094 0.078125-0.91797 0.19141-1.3672l0.21875-1.3125 0.070312-0.32422 0.16797-0.54688 0.16797-0.60547h-0.003907c0.29297-0.89062 0.62891-1.7656 1.0156-2.625 0.35547-0.82812 0.6875-1.5664 0.93359-2.2539v0.003906c0.50781-1.2734 0.72266-2.6445 0.62891-4.0078-0.28125-6.6211-2.5586-13.004-6.5312-18.305-1.2188-0.96484-2.5-1.8438-3.8438-2.625-0.90625-0.64453-1.6797-1.457-2.2773-2.3906l-0.41016-0.71484-0.050781-0.082032v-0.027344l-0.14062-0.32812-0.003906-0.054688-0.050782-0.13672-0.058593-0.27734c-0.10938-0.38672-0.19141-0.73828-0.26953-1.125v0.003906c-0.125-0.88281-0.19922-1.7695-0.22266-2.6602 0.03125-0.76953 0.058594-1.4844 0.11328-2.1875 0.13672-1.3438 0.26953-2.582 0.46484-3.6484 0.82422-4.3086 1.1797-6.6133 1.7031-6.6992 0.51953-0.082031 1.1797 2.582 1.207 6.8906 0.027344 1.0664 0.082032 2.25 0.14063 3.5 0.050781 0.60547 0.10937 1.2344 0.16016 1.8906 0.082031 0.52344 0.19141 1.0703 0.27734 1.6484l0.41016 1.0664 0.058594 0.16797 0.027343 0.027344 0.21875 0.27734-0.003906-0.003906c0.34375 0.41016 0.75 0.76172 1.207 1.043 1.75 0.78516 3.3906 1.7891 4.8867 2.9922l0.027344 0.03125 0.10938 0.10938c5.125 5.9492 8.0859 13.457 8.4062 21.301z"/>
  <path d="m442.78 97.855c0.27734 0.79688-2.3594 2.1406-5.7891 5.0234-2 1.6875-3.8672 3.5312-5.5742 5.5156-1.9219 2.3047-3.9375 4.9648-5.9297 7.8477-3.9375 5.8711-7.4375 11.473-10.398 15.312-2.9609 3.8398-5.2969 5.8203-5.9023 5.4062-0.60547-0.41016 0.54688-3.2383 2.5508-7.4883 2.6641-5.668 5.7344-11.133 9.1875-16.355 2.0156-2.9297 4.2852-5.6758 6.7773-8.2109 2.1172-2.1016 4.5195-3.8945 7.1367-5.3242 4.5117-2.3867 7.8047-2.3867 7.9414-1.7266z"/>
  <path d="m429.77 152.72c1.6445 0.4375-2.6914 17.457-6.3672 38.121-3.4023 20.918-4.9688 38.062-6.6992 38.062-1.3477 0-2.2539-17.617 1.2344-39 3.8438-21.512 10.516-37.484 11.832-37.184z"/>
  <path d="m398.21 155.82c0.62891 0.35547-1.5078 5.25-5.6875 12.652-2.0547 3.707-4.582 8.043-7.2188 12.898-1.3711 2.4141-2.5234 5.0469-3.8984 7.6875-0.65625 1.3438-1.1523 2.7422-1.7812 4.1445-0.51953 1.3984-1.3125 2.8281-1.6758 4.2812h0.003906c-1.0312 2.8203-1.832 5.7188-2.3906 8.6719-0.26953 1.4258-0.54688 2.8516-0.82422 4.2539-0.13672 1.2891-0.21875 2.6016-0.24609 3.9375l0.003906-0.003906c0.1875 2.9883-0.23438 5.9844-1.2383 8.8086l-0.54687 1.1797c-0.16797 0.30078-0.35938 0.49609-0.51953 0.76953l-0.55078 0.71484c-0.23047 0.29688-0.47656 0.57812-0.74219 0.84766-0.85938 0.89844-1.8047 1.707-2.8242 2.4141-1.8125 1.2891-3.5 2.2227-4.7188 3.1289h-0.003907c-1.0938 0.74219-2.1055 1.5977-3.0195 2.5547-0.62891 0.64453-1.2148 1.332-1.75 2.0586-0.41016 0.49609-0.71484 0.71484-0.90625 0.63281-0.19141-0.078125-0.1875-0.46875-0.10938-1.0977h0.003906c0.125-0.95703 0.43359-1.8789 0.90234-2.7188 0.73047-1.4062 1.6836-2.6875 2.8281-3.7891 1.2656-1.3125 2.8008-2.4727 4.3086-3.8398 0.73828-0.64453 1.4102-1.3633 2.0039-2.1445 0.14453-0.15234 0.27344-0.31641 0.38672-0.49219l0.46875-0.76562c0.15625-0.24219 0.30469-0.48828 0.4375-0.74609 0.027344-0.18359 0.074219-0.36719 0.13672-0.54688 0.47266-2.2734 0.58594-4.6055 0.32812-6.9141-0.066406-1.5391-0.039063-3.0781 0.085937-4.6133 0.24609-1.5078 0.49219-3.0469 0.73828-4.6094 0.54297-3.2422 1.3711-6.4258 2.4727-9.5195 0.52734-1.5742 1.1484-3.1172 1.8633-4.6133 0.66016-1.4844 1.2344-2.9922 1.9766-4.375 1.4844-2.7422 2.8281-5.4609 4.3359-7.8477 2.9648-4.8867 5.8711-9.0312 8.3438-12.484 5.0703-6.8398 8.3398-10.902 9.0234-10.516z"/>
  <path d="m379.79 83.777-0.26953 0.078125 0.13281-0.050781 0.085938-0.027344z"/>
  <path d="m375.9 298.04c1.0117 2.1445 1.5273 4.4883 1.5117 6.8594-0.48438 3.6875-1.3984 7.3086-2.7188 10.785-0.64453 2.1719-0.96875 4.4297-0.96094 6.6992-0.10938 2.3047-0.19141 4.418-0.21875 6.3125-0.10156 2.9648 0.10156 5.9375 0.60156 8.8633 0.13281 0.83203 0.30859 1.6562 0.52344 2.4727 0.082031 0.60547 0.058593 0.95703-0.10938 1.043-0.30078 0.10938-1.3125-0.60547-2.4141-2.6914l-0.003906-0.003907c-1.4062-2.9766-2.2617-6.1836-2.5234-9.4648-0.25-2.0312-0.35938-4.2266-0.46875-6.5625-0.21875-2.6602-0.003907-5.3398 0.63281-7.9336 1.375-6.0117 2.9922-8.6445 0.33203-14.574-2.3047-5.1328-5.625-9.8516-7.7383-15.125l-0.41406-0.98828-0.050782-0.10938-0.082031-0.27734-0.082031-0.21875-0.10938-0.46484c-0.16016-0.60547-0.32812-1.2383-0.46484-1.8125-0.30078-1.207-0.60547-2.3633-0.875-3.5-0.55078-2.25-1.0469-4.375-1.5078-6.2852-1.1562-8.0117-1.457-12.922-0.6875-13.031 0.76953-0.10938 2.4141 4.4961 4.4453 11.91 0.66016 1.8672 1.3984 3.8984 2.1875 6.0938 0.35547 1.0977 0.73828 2.2227 1.125 3.4023 0.21875 0.57422 0.41016 1.1758 0.60547 1.7812l0.13672 0.4375 0.082032 0.19141v0.050782l0.027344 0.058594 0.38672 0.79687c2.5195 5.3203 6.4453 9.8789 8.832 15.285z"/>
  <path d="m276.82 233.68c0 0.027344-0.10937 0.082031-0.16016 0.10938l-0.90625 0.55078h-0.003906c-2.2734 1.5977-4 3.8594-4.9414 6.4727-0.46484 1.0742-0.85547 2.1719-1.1758 3.2969-0.27734 0.98828-0.49609 1.8359-0.74219 2.625-0.30078 1.5352-0.6875 2.4141-1.043 2.4141-0.35547 0-0.76953-0.875-1.0977-2.4141-0.33594-2.3594-0.23438-4.7617 0.30078-7.0859 0.71484-3.7266 2.7305-7.082 5.6875-9.4648 0.46484-0.32812 0.95703-0.66016 1.4258-0.98828 0.16797-0.082031 0.16797-0.10938 0.46875-0.27734l0.30078-0.16016 0.65625-0.30078v-0.003907c0.89844-0.49219 1.8242-0.92969 2.7734-1.3125 1.0664-0.4375 2.2734-0.82422 2.9922-1.043l0.10938-0.058593 0.4375-0.79688c0.4375-0.93359 0.90625-1.8672 1.3438-2.7734l0.6875-1.3945 0.16797-0.35938 0.082032-0.16797 0.19141-0.35547 0.37891-0.62891v0.007813c0.50391-0.89844 1.0625-1.7578 1.6758-2.582 0.73828-0.85156 1.457-1.7852 2.1875-2.5 2.5859-2.4453 5.625-4.3555 8.9492-5.625 5.5742-2.0312 9.1875-1.9219 9.332-1.2344 0.21875 0.79688-3.0625 2.082-7.6055 4.7734-2.5898 1.5195-4.9375 3.4141-6.9688 5.625-0.51953 0.60547-0.93359 1.2383-1.4258 1.8438-0.53906 0.76562-1.0156 1.5742-1.4297 2.4141l-0.35547 0.62891v0.027343l-0.050781 0.17969-0.16797 0.35547-0.62891 1.375c-0.46484 0.96094-0.90625 1.9219-1.375 2.9102v-0.003906c-0.32031 0.64453-0.69531 1.2578-1.125 1.8398-0.37891 0.44141-0.8125 0.83984-1.2891 1.1797-0.40234 0.20703-0.8125 0.38672-1.2344 0.54688-1.2617 0.38672-2.0039 0.57812-2.8008 0.875-0.76562 0.21875-1.7812 0.74219-2.625 1.0703l-0.6875 0.27734z"/>
  <use x="70" y="625.625" xlink:href="#u"/>
  <use x="86.054688" y="625.625" xlink:href="#d"/>
  <use x="96.839844" y="625.625" xlink:href="#a"/>
  <use x="111.679687" y="625.625" xlink:href="#g"/>
  <use x="126.4375" y="625.625" xlink:href="#b"/>
  <use x="136.894531" y="625.625" xlink:href="#a"/>
  <use x="151.730469" y="625.625" xlink:href="#i"/>
  <use x="175.007812" y="625.625" xlink:href="#c"/>
  <use x="190.664062" y="625.625" xlink:href="#f"/>
  <use x="212.539062" y="625.625" xlink:href="#h"/>
  <use x="230.847656" y="625.625" xlink:href="#a"/>
  <use x="245.683594" y="625.625" xlink:href="#f"/>
  <use x="267.558594" y="625.625" xlink:href="#t"/>
  <use x="284.402344" y="625.625" xlink:href="#g"/>
  <use x="299.164062" y="625.625" xlink:href="#c"/>
  <use x="314.824219" y="625.625" xlink:href="#c"/>
  <use x="330.480469" y="625.625" xlink:href="#s"/>
  <use x="337.980469" y="625.625" xlink:href="#b"/>
  <use x="70" y="647.5" xlink:href="#r"/>
  <use x="79.515625" y="647.5" xlink:href="#d"/>
  <use x="90.304688" y="647.5" xlink:href="#e"/>
  <use x="105.332031" y="647.5" xlink:href="#q"/>
  <use x="135.742188" y="647.5" xlink:href="#b"/>
  <use x="146.199219" y="647.5" xlink:href="#p"/>
  <use x="161.773438" y="647.5" xlink:href="#a"/>
  <use x="184.222656" y="647.5" xlink:href="#o"/>
  <use x="202.53125" y="647.5" xlink:href="#e"/>
  <use x="217.558594" y="647.5" xlink:href="#n"/>
  <use x="233.132812" y="647.5" xlink:href="#m"/>
  <use x="256.320312" y="647.5" xlink:href="#l"/>
  <use x="272.355469" y="647.5" xlink:href="#d"/>
  <use x="283.140625" y="647.5" xlink:href="#e"/>
  <use x="298.171875" y="647.5" xlink:href="#k"/>
  <use x="305.667969" y="647.5" xlink:href="#a"/>
  <use x="320.503906" y="647.5" xlink:href="#j"/>
  <use x="333.472656" y="647.5" xlink:href="#b"/>
 </g>
</svg>
